<svg xmlns="http://www.w3.org/2000/svg" xmlns:xlink="http://www.w3.org/1999/xlink" width="76" zoomAndPan="magnify" viewBox="0 0 56.879997 67.499998" height="90" preserveAspectRatio="xMidYMid meet" version="1.0"><defs><clipPath id="c6854fc4f5"><path d="M 2 0 L 56.609375 0 L 56.609375 64 L 2 64 Z M 2 0 " clip-rule="nonzero"/></clipPath></defs><g clip-path="url(#c6854fc4f5)"><path fill="#000000" d="M 51.164062 21.164062 C 51.335938 21.042969 51.460938 20.890625 51.539062 20.699219 C 51.828125 20.011719 52.003906 19.296875 52.066406 18.558594 C 52.125 17.816406 52.070312 17.082031 51.894531 16.359375 C 51.71875 15.636719 51.4375 14.957031 51.046875 14.324219 C 50.652344 13.691406 50.171875 13.132812 49.601562 12.65625 C 49 12.191406 48.34375 11.835938 47.628906 11.589844 C 46.910156 11.339844 46.171875 11.210938 45.414062 11.203125 C 44.65625 11.191406 43.917969 11.304688 43.195312 11.53125 C 42.472656 11.761719 41.804688 12.101562 41.191406 12.546875 C 41.128906 12.597656 41.070312 12.652344 41.015625 12.710938 C 38.316406 11.414062 35.480469 10.585938 32.503906 10.234375 L 32.503906 6.121094 L 35.710938 6.121094 C 35.882812 6.121094 36.046875 6.085938 36.199219 6.007812 C 36.351562 5.933594 36.480469 5.828125 36.585938 5.691406 C 36.6875 5.550781 36.757812 5.398438 36.789062 5.230469 C 36.820312 5.0625 36.8125 4.898438 36.761719 4.730469 C 36.808594 4.609375 36.832031 4.484375 36.832031 4.355469 L 36.832031 1.121094 C 36.832031 0.972656 36.800781 0.828125 36.746094 0.691406 C 36.6875 0.558594 36.605469 0.4375 36.5 0.332031 C 36.394531 0.226562 36.273438 0.144531 36.136719 0.0898438 C 36 0.03125 35.859375 0 35.710938 0 C 35.570312 0.0078125 35.433594 0.0351562 35.300781 0.0898438 C 35.15625 0.0273438 35.007812 0 34.847656 0 L 23.371094 0 C 22.980469 -0.015625 22.683594 0.140625 22.472656 0.46875 C 22.21875 0.527344 22.011719 0.65625 21.847656 0.859375 C 21.683594 1.0625 21.601562 1.292969 21.597656 1.550781 L 21.597656 4.789062 C 21.601562 4.882812 21.613281 4.976562 21.644531 5.066406 C 21.640625 5.210938 21.667969 5.34375 21.722656 5.476562 C 21.777344 5.605469 21.855469 5.722656 21.957031 5.820312 C 22.058594 5.921875 22.175781 5.996094 22.304688 6.050781 C 22.4375 6.101562 22.574219 6.125 22.71875 6.121094 L 25.925781 6.121094 L 25.925781 10.253906 C 22.910156 10.628906 20.042969 11.492188 17.324219 12.839844 C 17.25 12.726562 17.160156 12.628906 17.050781 12.546875 C 16.441406 12.101562 15.773438 11.761719 15.050781 11.53125 C 14.328125 11.304688 13.585938 11.191406 12.828125 11.203125 C 12.070312 11.210938 11.335938 11.339844 10.617188 11.589844 C 9.902344 11.835938 9.242188 12.191406 8.644531 12.65625 C 8.074219 13.132812 7.59375 13.691406 7.199219 14.324219 C 6.808594 14.957031 6.523438 15.636719 6.351562 16.359375 C 6.175781 17.082031 6.121094 17.816406 6.179688 18.558594 C 6.242188 19.296875 6.414062 20.011719 6.703125 20.699219 C 6.820312 20.996094 7.03125 21.195312 7.335938 21.296875 C 7.027344 21.726562 6.730469 22.164062 6.449219 22.609375 C 6.167969 23.054688 5.898438 23.511719 5.640625 23.972656 C 5.386719 24.4375 5.144531 24.90625 4.914062 25.382812 C 4.6875 25.859375 4.472656 26.339844 4.273438 26.832031 C 4.074219 27.320312 3.886719 27.816406 3.71875 28.316406 C 3.546875 28.816406 3.390625 29.320312 3.25 29.828125 C 3.109375 30.335938 2.984375 30.851562 2.875 31.367188 C 2.761719 31.882812 2.667969 32.402344 2.589844 32.925781 C 2.507812 33.445312 2.445312 33.96875 2.394531 34.496094 C 2.347656 35.023438 2.3125 35.550781 2.296875 36.078125 C 2.277344 36.605469 2.273438 37.132812 2.289062 37.660156 C 2.300781 38.1875 2.332031 38.714844 2.375 39.242188 C 2.417969 39.769531 2.480469 40.292969 2.554688 40.816406 C 2.628906 41.339844 2.722656 41.859375 2.828125 42.375 C 2.933594 42.894531 3.054688 43.40625 3.191406 43.917969 C 3.328125 44.425781 3.476562 44.933594 3.644531 45.433594 C 3.8125 45.9375 3.992188 46.433594 4.1875 46.921875 C 4.382812 47.414062 4.59375 47.898438 4.816406 48.378906 C 5.042969 48.855469 5.277344 49.328125 5.53125 49.792969 C 5.78125 50.257812 6.046875 50.714844 6.328125 51.164062 C 6.605469 51.609375 6.898438 52.050781 7.203125 52.484375 C 7.507812 52.914062 7.824219 53.339844 8.15625 53.75 C 8.484375 54.164062 8.828125 54.566406 9.179688 54.960938 C 9.535156 55.355469 9.898438 55.738281 10.277344 56.109375 C 10.652344 56.480469 11.039062 56.839844 11.4375 57.191406 C 11.832031 57.539062 12.242188 57.878906 12.660156 58.203125 C 13.078125 58.527344 13.503906 58.839844 13.9375 59.140625 C 14.375 59.441406 14.820312 59.726562 15.273438 60.003906 C 15.726562 60.277344 16.183594 60.539062 16.652344 60.785156 C 17.121094 61.03125 17.597656 61.265625 18.078125 61.484375 C 18.5625 61.703125 19.050781 61.910156 19.542969 62.101562 C 20.039062 62.292969 20.535156 62.46875 21.039062 62.628906 C 21.546875 62.789062 22.054688 62.9375 22.566406 63.070312 C 23.082031 63.199219 23.597656 63.316406 24.117188 63.417969 C 24.636719 63.519531 25.160156 63.605469 25.683594 63.675781 C 26.210938 63.746094 26.738281 63.804688 27.265625 63.84375 C 27.792969 63.882812 28.324219 63.90625 28.851562 63.914062 C 29.382812 63.925781 29.914062 63.917969 30.441406 63.894531 C 30.972656 63.875 31.5 63.835938 32.027344 63.785156 C 32.554688 63.730469 33.078125 63.660156 33.601562 63.578125 C 34.125 63.492188 34.644531 63.394531 35.164062 63.28125 C 35.679688 63.164062 36.195312 63.035156 36.703125 62.890625 C 37.214844 62.746094 37.71875 62.589844 38.21875 62.414062 C 38.71875 62.238281 39.214844 62.050781 39.703125 61.847656 C 40.191406 61.644531 40.675781 61.429688 41.152344 61.195312 C 41.628906 60.964844 42.097656 60.71875 42.558594 60.460938 C 43.019531 60.203125 43.472656 59.929688 43.917969 59.644531 C 44.367188 59.359375 44.800781 59.0625 45.230469 58.75 C 45.660156 58.4375 46.078125 58.113281 46.488281 57.78125 C 46.894531 57.445312 47.292969 57.097656 47.683594 56.738281 C 48.070312 56.378906 48.449219 56.007812 48.816406 55.628906 C 49.183594 55.246094 49.539062 54.855469 49.882812 54.453125 C 50.226562 54.050781 50.558594 53.640625 50.875 53.21875 C 51.195312 52.796875 51.503906 52.367188 51.796875 51.925781 C 52.089844 51.488281 52.371094 51.039062 52.640625 50.582031 C 52.90625 50.128906 53.160156 49.664062 53.398438 49.195312 C 53.640625 48.722656 53.867188 48.246094 54.078125 47.761719 C 54.289062 47.277344 54.488281 46.789062 54.671875 46.292969 C 54.855469 45.796875 55.023438 45.296875 55.175781 44.789062 C 55.328125 44.285156 55.46875 43.777344 55.59375 43.261719 C 55.714844 42.75 55.824219 42.230469 55.917969 41.710938 C 56.011719 41.191406 56.085938 40.667969 56.148438 40.144531 C 56.210938 39.621094 56.257812 39.09375 56.289062 38.566406 C 56.320312 38.039062 56.335938 37.511719 56.335938 36.984375 C 56.339844 34.140625 55.898438 31.367188 55.015625 28.664062 C 54.132812 25.960938 52.847656 23.460938 51.164062 21.164062 Z M 48.199219 14.40625 C 48.542969 14.699219 48.835938 15.035156 49.082031 15.414062 C 49.328125 15.792969 49.515625 16.199219 49.648438 16.628906 C 49.777344 17.0625 49.839844 17.503906 49.84375 17.957031 C 49.84375 18.40625 49.785156 18.847656 49.65625 19.28125 C 47.796875 17.164062 45.660156 15.375 43.242188 13.917969 C 43.636719 13.722656 44.050781 13.585938 44.484375 13.507812 C 44.917969 13.425781 45.351562 13.410156 45.789062 13.453125 C 46.230469 13.496094 46.652344 13.597656 47.0625 13.757812 C 47.46875 13.917969 47.847656 14.132812 48.199219 14.402344 Z M 23.84375 3.882812 L 23.84375 2.234375 L 34.585938 2.234375 L 34.585938 3.882812 Z M 30.257812 6.121094 L 30.257812 10.058594 C 29.941406 10.046875 29.621094 10.035156 29.300781 10.035156 C 28.921875 10.035156 28.550781 10.046875 28.175781 10.0625 L 28.175781 6.121094 Z M 10.050781 14.402344 C 10.414062 14.125 10.808594 13.902344 11.238281 13.738281 C 11.664062 13.578125 12.109375 13.476562 12.566406 13.445312 C 13.019531 13.410156 13.472656 13.441406 13.921875 13.539062 C 14.367188 13.636719 14.792969 13.796875 15.191406 14.019531 C 12.730469 15.527344 10.5625 17.378906 8.691406 19.574219 C 8.527344 19.128906 8.4375 18.664062 8.414062 18.1875 C 8.390625 17.710938 8.441406 17.238281 8.5625 16.777344 C 8.683594 16.316406 8.871094 15.882812 9.125 15.476562 C 9.378906 15.070312 9.6875 14.714844 10.050781 14.402344 Z M 29.300781 61.6875 C 28.488281 61.6875 27.679688 61.648438 26.871094 61.570312 C 26.0625 61.492188 25.261719 61.371094 24.464844 61.214844 C 23.667969 61.058594 22.882812 60.859375 22.105469 60.625 C 21.328125 60.390625 20.5625 60.117188 19.8125 59.808594 C 19.0625 59.5 18.328125 59.152344 17.613281 58.773438 C 16.898438 58.390625 16.203125 57.976562 15.527344 57.527344 C 14.851562 57.078125 14.199219 56.59375 13.570312 56.082031 C 12.945312 55.566406 12.34375 55.027344 11.769531 54.453125 C 11.195312 53.882812 10.648438 53.28125 10.136719 52.65625 C 9.621094 52.03125 9.136719 51.382812 8.683594 50.710938 C 8.234375 50.035156 7.816406 49.34375 7.433594 48.628906 C 7.050781 47.914062 6.703125 47.183594 6.394531 46.4375 C 6.082031 45.691406 5.808594 44.929688 5.574219 44.152344 C 5.339844 43.378906 5.140625 42.597656 4.984375 41.800781 C 4.824219 41.007812 4.707031 40.207031 4.625 39.402344 C 4.546875 38.597656 4.507812 37.789062 4.507812 36.980469 C 4.507812 36.171875 4.546875 35.363281 4.625 34.558594 C 4.703125 33.753906 4.824219 32.953125 4.980469 32.160156 C 5.140625 31.367188 5.335938 30.582031 5.574219 29.808594 C 5.808594 29.035156 6.082031 28.273438 6.394531 27.527344 C 6.703125 26.777344 7.050781 26.046875 7.433594 25.332031 C 7.816406 24.621094 8.234375 23.925781 8.683594 23.253906 C 9.136719 22.582031 9.617188 21.929688 10.132812 21.304688 C 10.648438 20.679688 11.195312 20.082031 11.769531 19.507812 C 12.34375 18.9375 12.941406 18.394531 13.570312 17.878906 C 14.199219 17.367188 14.851562 16.886719 15.523438 16.4375 C 16.199219 15.988281 16.894531 15.570312 17.613281 15.191406 C 18.328125 14.808594 19.0625 14.460938 19.8125 14.152344 C 20.5625 13.84375 21.324219 13.570312 22.101562 13.335938 C 22.878906 13.101562 23.667969 12.90625 24.464844 12.746094 C 25.257812 12.589844 26.0625 12.472656 26.871094 12.390625 C 27.679688 12.3125 28.488281 12.273438 29.300781 12.273438 C 30.113281 12.273438 30.921875 12.3125 31.730469 12.390625 C 32.539062 12.472656 33.339844 12.589844 34.136719 12.746094 C 34.933594 12.90625 35.71875 13.101562 36.496094 13.335938 C 37.273438 13.574219 38.039062 13.84375 38.789062 14.15625 C 39.539062 14.464844 40.269531 14.808594 40.988281 15.191406 C 41.703125 15.574219 42.398438 15.988281 43.074219 16.4375 C 43.75 16.886719 44.402344 17.371094 45.027344 17.882812 C 45.65625 18.394531 46.257812 18.9375 46.832031 19.511719 C 47.40625 20.082031 47.949219 20.683594 48.464844 21.308594 C 48.980469 21.933594 49.464844 22.582031 49.914062 23.257812 C 50.367188 23.929688 50.78125 24.621094 51.164062 25.335938 C 51.546875 26.050781 51.894531 26.78125 52.203125 27.527344 C 52.515625 28.277344 52.789062 29.039062 53.023438 29.8125 C 53.261719 30.585938 53.457031 31.371094 53.613281 32.164062 C 53.773438 32.957031 53.890625 33.757812 53.972656 34.5625 C 54.050781 35.367188 54.089844 36.175781 54.089844 36.984375 C 54.089844 37.792969 54.050781 38.601562 53.96875 39.40625 C 53.886719 40.210938 53.769531 41.007812 53.609375 41.800781 C 53.449219 42.59375 53.253906 43.378906 53.015625 44.152344 C 52.78125 44.925781 52.507812 45.6875 52.195312 46.433594 C 51.882812 47.179688 51.539062 47.910156 51.15625 48.625 C 50.773438 49.335938 50.355469 50.03125 49.902344 50.703125 C 49.453125 51.375 48.96875 52.023438 48.453125 52.648438 C 47.9375 53.273438 47.394531 53.871094 46.820312 54.445312 C 46.246094 55.015625 45.648438 55.558594 45.019531 56.070312 C 44.390625 56.585938 43.742188 57.066406 43.066406 57.515625 C 42.390625 57.964844 41.695312 58.382812 40.980469 58.761719 C 40.265625 59.144531 39.53125 59.492188 38.78125 59.800781 C 38.035156 60.109375 37.269531 60.382812 36.492188 60.617188 C 35.71875 60.855469 34.929688 61.050781 34.136719 61.210938 C 33.339844 61.367188 32.539062 61.488281 31.730469 61.566406 C 30.921875 61.648438 30.113281 61.6875 29.300781 61.6875 Z M 41.601562 28.171875 C 41.722656 28.289062 41.8125 28.425781 41.878906 28.582031 C 41.945312 28.738281 41.976562 28.898438 41.976562 29.066406 C 41.976562 29.238281 41.945312 29.398438 41.882812 29.554688 C 41.820312 29.710938 41.726562 29.847656 41.609375 29.96875 L 28.96875 42.578125 C 28.71875 42.828125 28.417969 42.953125 28.066406 42.953125 L 28.0625 42.953125 C 27.710938 42.953125 27.414062 42.828125 27.164062 42.582031 C 27.113281 42.53125 27.066406 42.476562 27.023438 42.417969 L 21.820312 36.253906 C 21.710938 36.117188 21.628906 35.964844 21.582031 35.796875 C 21.535156 35.628906 21.523438 35.457031 21.546875 35.285156 C 21.566406 35.109375 21.625 34.949219 21.714844 34.796875 C 21.804688 34.648438 21.921875 34.519531 22.0625 34.417969 C 22.207031 34.316406 22.363281 34.246094 22.535156 34.210938 C 22.707031 34.171875 22.878906 34.167969 23.050781 34.203125 C 23.226562 34.234375 23.382812 34.300781 23.527344 34.402344 C 23.675781 34.5 23.792969 34.621094 23.886719 34.769531 L 28.210938 39.738281 L 39.796875 28.175781 C 39.917969 28.058594 40.058594 27.96875 40.214844 27.90625 C 40.367188 27.84375 40.53125 27.8125 40.699219 27.8125 C 40.867188 27.8125 41.027344 27.84375 41.183594 27.90625 C 41.339844 27.964844 41.480469 28.054688 41.601562 28.171875 Z M 29.300781 15.726562 C 28.605469 15.726562 27.910156 15.757812 27.214844 15.828125 C 26.519531 15.894531 25.832031 15.996094 25.148438 16.132812 C 24.464844 16.269531 23.789062 16.4375 23.121094 16.636719 C 22.453125 16.839844 21.800781 17.074219 21.15625 17.339844 C 20.511719 17.605469 19.882812 17.902344 19.265625 18.230469 C 18.652344 18.558594 18.054688 18.914062 17.472656 19.300781 C 16.894531 19.683594 16.335938 20.097656 15.796875 20.539062 C 15.257812 20.980469 14.742188 21.445312 14.246094 21.9375 C 13.753906 22.429688 13.289062 22.941406 12.84375 23.480469 C 12.402344 24.015625 11.988281 24.574219 11.601562 25.152344 C 11.210938 25.730469 10.855469 26.324219 10.527344 26.9375 C 10.195312 27.550781 9.898438 28.175781 9.632812 28.820312 C 9.367188 29.460938 9.128906 30.113281 8.929688 30.78125 C 8.726562 31.445312 8.554688 32.117188 8.421875 32.800781 C 8.285156 33.480469 8.183594 34.167969 8.113281 34.859375 C 8.046875 35.550781 8.011719 36.242188 8.011719 36.9375 C 8.011719 37.632812 8.042969 38.324219 8.113281 39.015625 C 8.179688 39.707031 8.28125 40.394531 8.417969 41.078125 C 8.554688 41.757812 8.722656 42.429688 8.925781 43.097656 C 9.128906 43.761719 9.363281 44.414062 9.628906 45.058594 C 9.894531 45.699219 10.195312 46.328125 10.523438 46.9375 C 10.851562 47.550781 11.210938 48.148438 11.597656 48.726562 C 11.984375 49.304688 12.398438 49.859375 12.839844 50.398438 C 13.28125 50.933594 13.75 51.449219 14.242188 51.941406 C 14.734375 52.433594 15.253906 52.898438 15.789062 53.339844 C 16.328125 53.78125 16.890625 54.191406 17.46875 54.578125 C 18.046875 54.964844 18.644531 55.320312 19.261719 55.648438 C 19.875 55.976562 20.503906 56.273438 21.148438 56.539062 C 21.792969 56.804688 22.449219 57.039062 23.117188 57.242188 C 23.78125 57.445312 24.457031 57.613281 25.140625 57.75 C 25.824219 57.882812 26.515625 57.984375 27.207031 58.054688 C 27.902344 58.121094 28.597656 58.15625 29.296875 58.15625 C 29.992188 58.15625 30.6875 58.121094 31.382812 58.054688 C 32.074219 57.988281 32.765625 57.886719 33.449219 57.75 C 34.132812 57.613281 34.808594 57.445312 35.476562 57.242188 C 36.140625 57.042969 36.796875 56.808594 37.441406 56.542969 C 38.085938 56.277344 38.714844 55.980469 39.332031 55.652344 C 39.945312 55.324219 40.542969 54.96875 41.121094 54.582031 C 41.703125 54.195312 42.261719 53.785156 42.800781 53.34375 C 43.339844 52.902344 43.855469 52.4375 44.347656 51.945312 C 44.839844 51.453125 45.308594 50.941406 45.75 50.402344 C 46.195312 49.867188 46.609375 49.308594 46.996094 48.730469 C 47.382812 48.152344 47.742188 47.558594 48.070312 46.945312 C 48.398438 46.332031 48.699219 45.703125 48.964844 45.0625 C 49.230469 44.421875 49.464844 43.769531 49.667969 43.101562 C 49.871094 42.4375 50.039062 41.765625 50.175781 41.082031 C 50.3125 40.402344 50.414062 39.714844 50.484375 39.023438 C 50.550781 38.332031 50.585938 37.640625 50.585938 36.945312 C 50.585938 36.25 50.550781 35.558594 50.480469 34.867188 C 50.414062 34.175781 50.308594 33.488281 50.171875 32.808594 C 50.039062 32.125 49.867188 31.453125 49.664062 30.789062 C 49.460938 30.125 49.226562 29.472656 48.960938 28.828125 C 48.695312 28.1875 48.394531 27.5625 48.066406 26.949219 C 47.738281 26.335938 47.378906 25.742188 46.992188 25.164062 C 46.605469 24.585938 46.191406 24.027344 45.75 23.492188 C 45.304688 22.953125 44.839844 22.441406 44.347656 21.949219 C 43.855469 21.457031 43.335938 20.992188 42.800781 20.550781 C 42.261719 20.109375 41.703125 19.695312 41.121094 19.3125 C 40.542969 18.925781 39.945312 18.566406 39.332031 18.238281 C 38.71875 17.914062 38.085938 17.613281 37.445312 17.347656 C 36.800781 17.082031 36.144531 16.847656 35.476562 16.644531 C 34.8125 16.445312 34.136719 16.273438 33.453125 16.140625 C 32.769531 16.003906 32.082031 15.898438 31.386719 15.832031 C 30.695312 15.761719 30 15.726562 29.300781 15.726562 Z M 30.109375 55.835938 C 30.117188 55.792969 30.121094 55.746094 30.121094 55.703125 L 30.121094 52.25 C 30.121094 52.101562 30.09375 51.957031 30.039062 51.820312 C 29.980469 51.683594 29.898438 51.5625 29.792969 51.457031 C 29.6875 51.351562 29.566406 51.273438 29.429688 51.214844 C 29.292969 51.160156 29.148438 51.128906 29 51.128906 C 28.851562 51.128906 28.707031 51.160156 28.570312 51.214844 C 28.433594 51.273438 28.3125 51.351562 28.207031 51.457031 C 28.101562 51.5625 28.019531 51.683594 27.960938 51.820312 C 27.90625 51.957031 27.875 52.101562 27.875 52.25 L 27.875 55.703125 C 27.875 55.734375 27.882812 55.765625 27.886719 55.796875 C 26.777344 55.714844 25.683594 55.53125 24.605469 55.257812 C 23.527344 54.980469 22.484375 54.617188 21.46875 54.15625 C 20.457031 53.699219 19.492188 53.15625 18.574219 52.527344 C 17.65625 51.902344 16.800781 51.199219 16.007812 50.421875 C 15.214844 49.644531 14.496094 48.804688 13.847656 47.902344 C 13.203125 47 12.640625 46.046875 12.164062 45.042969 C 11.6875 44.042969 11.300781 43.007812 11.003906 41.9375 C 10.707031 40.871094 10.507812 39.785156 10.40625 38.679688 C 10.46875 38.691406 10.535156 38.699219 10.597656 38.699219 L 13.195312 38.699219 C 13.503906 38.695312 13.769531 38.585938 13.992188 38.371094 C 14.152344 38.210938 14.253906 38.019531 14.296875 37.796875 C 14.34375 37.574219 14.320312 37.359375 14.234375 37.148438 C 14.148438 36.941406 14.007812 36.773438 13.820312 36.648438 C 13.632812 36.523438 13.421875 36.460938 13.195312 36.460938 L 10.597656 36.460938 C 10.507812 36.460938 10.421875 36.472656 10.335938 36.496094 C 10.363281 35.34375 10.496094 34.203125 10.734375 33.074219 C 10.972656 31.945312 11.3125 30.84375 11.75 29.777344 C 12.191406 28.710938 12.722656 27.691406 13.347656 26.722656 C 13.976562 25.75 14.683594 24.84375 15.476562 24.003906 C 16.269531 23.164062 17.128906 22.402344 18.0625 21.714844 C 18.996094 21.03125 19.980469 20.4375 21.023438 19.933594 C 22.0625 19.429688 23.140625 19.023438 24.257812 18.714844 C 25.371094 18.40625 26.507812 18.203125 27.660156 18.101562 L 27.660156 21.617188 C 27.660156 21.765625 27.6875 21.90625 27.746094 22.042969 C 27.800781 22.179688 27.882812 22.300781 27.988281 22.40625 C 28.09375 22.511719 28.214844 22.59375 28.351562 22.648438 C 28.492188 22.707031 28.632812 22.734375 28.78125 22.734375 C 28.933594 22.734375 29.074219 22.707031 29.214844 22.648438 C 29.351562 22.59375 29.472656 22.511719 29.578125 22.40625 C 29.683594 22.300781 29.765625 22.179688 29.820312 22.042969 C 29.878906 21.90625 29.90625 21.765625 29.90625 21.617188 L 29.90625 18.039062 C 31.078125 18.078125 32.238281 18.226562 33.382812 18.476562 C 34.527344 18.730469 35.636719 19.085938 36.71875 19.542969 C 37.796875 20 38.824219 20.550781 39.800781 21.199219 C 40.777344 21.84375 41.6875 22.578125 42.527344 23.390625 C 43.367188 24.207031 44.125 25.089844 44.800781 26.046875 C 45.476562 27 46.0625 28.007812 46.550781 29.070312 C 47.039062 30.132812 47.425781 31.230469 47.710938 32.363281 C 47.996094 33.5 48.171875 34.648438 48.246094 35.816406 L 45.453125 35.816406 C 45.304688 35.816406 45.160156 35.84375 45.023438 35.898438 C 44.886719 35.957031 44.765625 36.039062 44.660156 36.140625 C 44.554688 36.246094 44.472656 36.367188 44.414062 36.503906 C 44.359375 36.640625 44.328125 36.785156 44.328125 36.933594 C 44.328125 37.082031 44.359375 37.226562 44.414062 37.363281 C 44.472656 37.5 44.554688 37.621094 44.660156 37.726562 C 44.765625 37.828125 44.886719 37.910156 45.023438 37.96875 C 45.160156 38.023438 45.304688 38.054688 45.453125 38.054688 L 48.246094 38.054688 C 48.175781 39.210938 48 40.355469 47.71875 41.480469 C 47.4375 42.609375 47.058594 43.699219 46.574219 44.757812 C 46.09375 45.8125 45.519531 46.816406 44.851562 47.769531 C 44.183594 48.71875 43.433594 49.601562 42.605469 50.417969 C 41.773438 51.230469 40.875 51.964844 39.910156 52.613281 C 38.945312 53.261719 37.929688 53.820312 36.859375 54.28125 C 35.792969 54.746094 34.691406 55.109375 33.558594 55.371094 C 32.421875 55.628906 31.273438 55.785156 30.109375 55.835938 Z M 30.109375 55.835938 " fill-opacity="1" fill-rule="nonzero"/></g></svg>