<svg xmlns="http://www.w3.org/2000/svg" xmlns:xlink="http://www.w3.org/1999/xlink" width="77" zoomAndPan="magnify" viewBox="0 0 57.75 66" height="88" preserveAspectRatio="xMidYMid meet" version="1.0"><defs><clipPath id="1a879dbbbe"><path d="M 0 1 L 56.753906 1 L 56.753906 65 L 0 65 Z M 0 1 " clip-rule="nonzero"/></clipPath></defs><g clip-path="url(#1a879dbbbe)"><path fill="#000000" d="M 22.15625 19.324219 C 22.746094 19.328125 23.332031 19.277344 23.914062 19.171875 C 24.496094 19.0625 25.0625 18.898438 25.613281 18.683594 C 26.164062 18.464844 26.6875 18.199219 27.1875 17.878906 C 27.6875 17.5625 28.148438 17.199219 28.578125 16.792969 C 29.007812 16.382812 29.394531 15.9375 29.738281 15.457031 C 30.082031 14.976562 30.378906 14.464844 30.625 13.925781 C 30.871094 13.386719 31.0625 12.832031 31.203125 12.253906 C 31.339844 11.679688 31.425781 11.097656 31.453125 10.503906 C 31.472656 9.898438 31.4375 9.292969 31.335938 8.691406 C 31.238281 8.09375 31.082031 7.507812 30.867188 6.9375 C 30.652344 6.371094 30.386719 5.828125 30.0625 5.3125 C 29.742188 4.796875 29.371094 4.316406 28.953125 3.875 C 28.535156 3.433594 28.078125 3.039062 27.582031 2.6875 C 27.085938 2.335938 26.558594 2.039062 26.003906 1.792969 C 25.445312 1.546875 24.871094 1.359375 24.277344 1.230469 C 23.6875 1.097656 23.085938 1.027344 22.476562 1.015625 C 21.871094 1.003906 21.269531 1.054688 20.671875 1.164062 C 20.074219 1.273438 19.492188 1.441406 18.925781 1.664062 C 18.363281 1.890625 17.824219 2.167969 17.316406 2.5 C 16.808594 2.832031 16.335938 3.210938 15.902344 3.636719 C 15.46875 4.066406 15.082031 4.53125 14.742188 5.03125 C 14.402344 5.535156 14.113281 6.070312 13.878906 6.628906 C 13.640625 7.191406 13.464844 7.769531 13.34375 8.363281 C 13.226562 8.960938 13.164062 9.5625 13.164062 10.171875 C 13.164062 10.765625 13.222656 11.355469 13.339844 11.9375 C 13.453125 12.523438 13.625 13.089844 13.847656 13.636719 C 14.074219 14.1875 14.347656 14.710938 14.675781 15.207031 C 15.003906 15.703125 15.375 16.164062 15.789062 16.589844 C 16.207031 17.011719 16.660156 17.390625 17.152344 17.726562 C 17.640625 18.0625 18.160156 18.347656 18.703125 18.582031 C 19.25 18.816406 19.8125 18.996094 20.394531 19.121094 C 20.972656 19.246094 21.5625 19.316406 22.15625 19.324219 Z M 22.457031 4.097656 C 22.855469 4.105469 23.25 4.152344 23.636719 4.238281 C 24.027344 4.324219 24.402344 4.449219 24.765625 4.609375 C 25.132812 4.769531 25.476562 4.960938 25.800781 5.191406 C 26.128906 5.417969 26.429688 5.675781 26.707031 5.960938 C 26.980469 6.25 27.226562 6.558594 27.441406 6.894531 C 27.65625 7.230469 27.839844 7.582031 27.984375 7.953125 C 28.128906 8.324219 28.238281 8.707031 28.3125 9.097656 C 28.382812 9.488281 28.414062 9.886719 28.410156 10.285156 C 28.402344 10.679688 28.359375 11.074219 28.273438 11.464844 C 28.191406 11.855469 28.070312 12.234375 27.914062 12.597656 C 27.757812 12.964844 27.566406 13.3125 27.339844 13.640625 C 27.117188 13.96875 26.863281 14.273438 26.578125 14.550781 C 26.292969 14.828125 25.984375 15.078125 25.648438 15.296875 C 25.316406 15.511719 24.964844 15.695312 24.597656 15.84375 C 24.226562 15.996094 23.847656 16.105469 23.457031 16.179688 C 23.066406 16.253906 22.671875 16.289062 22.273438 16.289062 C 21.875 16.285156 21.480469 16.242188 21.09375 16.164062 C 20.703125 16.082031 20.324219 15.964844 19.957031 15.8125 C 19.589844 15.65625 19.242188 15.46875 18.914062 15.246094 C 18.582031 15.023438 18.277344 14.769531 17.996094 14.484375 C 17.71875 14.203125 17.46875 13.894531 17.246094 13.5625 C 17.027344 13.234375 16.839844 12.882812 16.6875 12.515625 C 16.539062 12.144531 16.421875 11.765625 16.347656 11.375 C 16.269531 10.984375 16.230469 10.589844 16.230469 10.191406 C 16.230469 9.785156 16.265625 9.382812 16.347656 8.984375 C 16.425781 8.585938 16.542969 8.199219 16.703125 7.824219 C 16.859375 7.449219 17.050781 7.09375 17.277344 6.757812 C 17.507812 6.421875 17.765625 6.109375 18.058594 5.824219 C 18.347656 5.542969 18.664062 5.289062 19.003906 5.070312 C 19.34375 4.847656 19.703125 4.664062 20.082031 4.515625 C 20.460938 4.367188 20.847656 4.257812 21.25 4.1875 C 21.648438 4.117188 22.050781 4.085938 22.457031 4.097656 Z M 55.976562 21.9375 C 55.6875 21.484375 55.273438 21.261719 54.734375 21.261719 L 46.21875 21.261719 C 46.015625 21.261719 45.824219 21.300781 45.640625 21.378906 C 45.453125 21.453125 45.289062 21.5625 45.148438 21.707031 C 45.007812 21.847656 44.898438 22.011719 44.820312 22.199219 C 44.746094 22.382812 44.707031 22.574219 44.707031 22.777344 C 44.707031 22.976562 44.746094 23.171875 44.820312 23.355469 C 44.898438 23.542969 45.007812 23.707031 45.148438 23.847656 C 45.289062 23.988281 45.453125 24.097656 45.640625 24.175781 C 45.824219 24.253906 46.015625 24.289062 46.21875 24.289062 L 51.964844 24.289062 C 47.15625 29.105469 42.355469 33.914062 37.558594 38.722656 L 37.558594 34.503906 L 37.539062 34.523438 L 37.539062 31.484375 C 37.53125 30.890625 37.46875 30.304688 37.351562 29.71875 C 37.230469 29.136719 37.058594 28.574219 36.828125 28.023438 C 36.597656 27.476562 36.316406 26.953125 35.988281 26.460938 C 35.65625 25.964844 35.28125 25.507812 34.863281 25.085938 C 34.441406 24.667969 33.984375 24.289062 33.492188 23.957031 C 33 23.625 32.480469 23.34375 31.933594 23.113281 C 31.386719 22.882812 30.820312 22.707031 30.238281 22.585938 C 29.65625 22.464844 29.070312 22.398438 28.476562 22.394531 C 24.34375 22.382812 20.210938 22.386719 16.078125 22.402344 C 15.558594 22.40625 15.046875 22.457031 14.539062 22.550781 C 14.027344 22.640625 13.53125 22.777344 13.046875 22.957031 C 12.558594 23.132812 12.09375 23.351562 11.644531 23.609375 C 11.195312 23.871094 10.773438 24.164062 10.375 24.496094 C 9.976562 24.828125 9.609375 25.191406 9.277344 25.585938 C 8.941406 25.980469 8.640625 26.398438 8.378906 26.84375 C 8.113281 27.292969 7.890625 27.757812 7.707031 28.242188 C 7.523438 28.726562 7.382812 29.222656 7.285156 29.730469 C 7.125 31.136719 7.054688 32.550781 7.074219 33.96875 C 7.066406 34.121094 7.074219 34.28125 7.074219 34.492188 C 7.046875 34.476562 7.023438 34.464844 6.992188 34.453125 L 6.992188 39.710938 C 7.042969 39.96875 7.066406 40.226562 7.066406 40.488281 C 7.074219 41.375 7.074219 49.359375 7.074219 52.628906 L 6.992188 52.628906 L 6.992188 55.527344 L 0.542969 61.984375 C 0.402344 62.128906 0.292969 62.292969 0.214844 62.476562 C 0.140625 62.664062 0.101562 62.855469 0.101562 63.058594 C 0.101562 63.257812 0.140625 63.453125 0.21875 63.636719 C 0.296875 63.824219 0.40625 63.988281 0.546875 64.128906 C 0.691406 64.269531 0.855469 64.378906 1.039062 64.457031 C 1.226562 64.53125 1.417969 64.570312 1.621094 64.570312 C 1.820312 64.570312 2.011719 64.53125 2.199219 64.453125 C 2.382812 64.375 2.546875 64.265625 2.691406 64.125 L 11.148438 55.65625 L 14.171875 52.628906 L 22.5 44.292969 L 27.660156 49.460938 C 27.789062 49.585938 27.9375 49.683594 28.101562 49.753906 C 28.210938 49.960938 28.359375 50.136719 28.550781 50.273438 C 28.742188 50.410156 28.953125 50.496094 29.183594 50.53125 C 29.417969 50.566406 29.644531 50.550781 29.867188 50.476562 C 30.089844 50.402344 30.285156 50.28125 30.453125 50.117188 L 34.472656 46.089844 C 35.492188 45.058594 36.511719 44.039062 37.539062 43.023438 C 42.914062 37.632812 48.292969 32.25 53.667969 26.875 L 53.667969 32.625 C 53.667969 32.828125 53.707031 33.019531 53.78125 33.207031 C 53.859375 33.390625 53.96875 33.554688 54.109375 33.695312 C 54.253906 33.839844 54.414062 33.949219 54.601562 34.023438 C 54.785156 34.101562 54.980469 34.140625 55.179688 34.140625 C 55.378906 34.140625 55.574219 34.101562 55.757812 34.023438 C 55.945312 33.949219 56.105469 33.839844 56.25 33.695312 C 56.390625 33.554688 56.5 33.390625 56.578125 33.207031 C 56.652344 33.019531 56.691406 32.828125 56.691406 32.625 L 56.691406 23.222656 C 56.679688 22.667969 56.441406 22.238281 55.976562 21.9375 Z M 29.382812 46.90625 C 27.578125 45.101562 25.777344 43.292969 23.980469 41.488281 C 23.933594 41.371094 23.875 41.265625 23.804688 41.164062 C 23.730469 41.0625 23.648438 40.972656 23.550781 40.890625 C 23.457031 40.8125 23.355469 40.746094 23.242188 40.691406 C 23.132812 40.636719 23.015625 40.597656 22.894531 40.570312 C 22.773438 40.546875 22.648438 40.535156 22.527344 40.539062 C 22.402344 40.542969 22.28125 40.566406 22.160156 40.601562 C 22.042969 40.636719 21.929688 40.683594 21.824219 40.746094 C 21.714844 40.808594 21.617188 40.886719 21.53125 40.972656 L 10.117188 52.398438 C 10.117188 47.523438 10.109375 35.179688 10.117188 31.597656 C 10.113281 31.191406 10.148438 30.789062 10.226562 30.390625 C 10.300781 29.992188 10.417969 29.605469 10.570312 29.226562 C 10.722656 28.851562 10.910156 28.496094 11.136719 28.15625 C 11.359375 27.820312 11.617188 27.507812 11.902344 27.21875 C 12.191406 26.933594 12.503906 26.675781 12.839844 26.453125 C 13.179688 26.230469 13.535156 26.039062 13.910156 25.886719 C 14.285156 25.734375 14.675781 25.621094 15.074219 25.546875 C 15.472656 25.472656 15.871094 25.4375 16.277344 25.441406 C 20.042969 25.429688 23.808594 25.429688 27.578125 25.441406 C 28.296875 25.421875 29.007812 25.472656 29.714844 25.59375 C 30.402344 25.742188 31.039062 26 31.632812 26.371094 C 32.226562 26.742188 32.742188 27.203125 33.175781 27.753906 C 33.609375 28.304688 33.9375 28.914062 34.160156 29.578125 C 34.382812 30.242188 34.488281 30.925781 34.472656 31.628906 C 34.484375 33.433594 34.472656 37.570312 34.472656 41.808594 Z M 29.382812 46.90625 " fill-opacity="1" fill-rule="nonzero"/></g></svg>