<svg xmlns="http://www.w3.org/2000/svg" xmlns:xlink="http://www.w3.org/1999/xlink" width="33" zoomAndPan="magnify"
    viewBox="0 0 24.75 24.749999" height="33" preserveAspectRatio="xMidYMid meet" version="1.0">
    <defs>
        <clipPath id="99c153a1e7">
            <path d="M 0 0 L 23.761719 0 L 23.761719 23.761719 L 0 23.761719 Z M 0 0 " clip-rule="nonzero" />
        </clipPath>
    </defs>
    <g clip-path="url(#99c153a1e7)">
        <path fill="#000000"
            d="M 17.992188 23.761719 L 5.828125 23.761719 C 2.617188 23.761719 0.03125 21.175781 0.03125 17.960938 L 0.03125 5.796875 C 0.03125 2.582031 2.617188 0 5.828125 0 L 17.929688 0 C 21.144531 0 23.726562 2.582031 23.726562 5.796875 L 23.726562 17.898438 C 23.726562 21.113281 21.144531 23.695312 17.929688 23.695312 Z M 5.828125 1.890625 C 3.6875 1.890625 1.921875 3.65625 1.921875 5.796875 L 1.921875 17.898438 C 1.921875 20.042969 3.6875 21.804688 5.828125 21.804688 L 17.929688 21.804688 C 20.074219 21.804688 21.835938 20.042969 21.835938 17.898438 L 21.835938 5.796875 C 21.835938 3.65625 20.074219 1.890625 17.929688 1.890625 Z M 5.828125 1.890625 "
            fill-opacity="1" fill-rule="nonzero" />
    </g>
    <path fill="#000000"
        d="M 11.941406 19.539062 C 7.785156 19.539062 4.441406 16.195312 4.441406 12.039062 C 4.441406 7.878906 7.785156 4.539062 11.941406 4.539062 C 16.101562 4.539062 19.441406 7.878906 19.441406 12.039062 C 19.441406 16.195312 16.101562 19.539062 11.941406 19.539062 Z M 11.941406 6.367188 C 8.792969 6.367188 6.269531 8.886719 6.269531 12.039062 C 6.269531 15.1875 8.792969 17.710938 11.941406 17.710938 C 15.09375 17.710938 17.613281 15.1875 17.613281 12.039062 C 17.613281 8.886719 15.09375 6.367188 11.941406 6.367188 Z M 11.941406 6.367188 "
        fill-opacity="1" fill-rule="nonzero" />
    <path fill="#000000"
        d="M 11.941406 15.441406 C 10.050781 15.441406 8.539062 13.929688 8.539062 12.039062 C 8.539062 10.148438 10.050781 8.632812 11.941406 8.632812 C 13.832031 8.632812 15.347656 10.148438 15.347656 12.039062 C 15.347656 13.929688 13.832031 15.441406 11.941406 15.441406 Z M 11.941406 10.523438 C 11.125 10.523438 10.429688 11.21875 10.429688 12.039062 C 10.429688 12.855469 11.125 13.550781 11.941406 13.550781 C 12.761719 13.550781 13.457031 12.855469 13.457031 12.039062 C 13.457031 11.21875 12.761719 10.523438 11.941406 10.523438 Z M 11.941406 10.523438 "
        fill-opacity="1" fill-rule="nonzero" />
    <path fill="#000000"
        d="M 20.074219 4.980469 C 20.074219 5.144531 20.042969 5.308594 19.976562 5.460938 C 19.914062 5.617188 19.820312 5.753906 19.703125 5.871094 C 19.585938 5.988281 19.449219 6.078125 19.296875 6.144531 C 19.140625 6.207031 18.980469 6.238281 18.8125 6.238281 C 18.644531 6.238281 18.484375 6.207031 18.332031 6.144531 C 18.175781 6.078125 18.039062 5.988281 17.921875 5.871094 C 17.804688 5.753906 17.710938 5.617188 17.648438 5.460938 C 17.585938 5.308594 17.550781 5.144531 17.550781 4.980469 C 17.550781 4.8125 17.585938 4.652344 17.648438 4.496094 C 17.710938 4.34375 17.804688 4.207031 17.921875 4.085938 C 18.039062 3.96875 18.175781 3.878906 18.332031 3.8125 C 18.484375 3.75 18.644531 3.71875 18.8125 3.71875 C 18.980469 3.71875 19.140625 3.75 19.296875 3.8125 C 19.449219 3.878906 19.585938 3.96875 19.703125 4.085938 C 19.820312 4.207031 19.914062 4.34375 19.976562 4.496094 C 20.042969 4.652344 20.074219 4.8125 20.074219 4.980469 Z M 20.074219 4.980469 "
        fill-opacity="1" fill-rule="nonzero" />
</svg>