<svg xmlns="http://www.w3.org/2000/svg" xmlns:xlink="http://www.w3.org/1999/xlink" width="38" zoomAndPan="magnify"
    viewBox="0 0 28.5 20.25" height="27" preserveAspectRatio="xMidYMid meet" version="1.0">
    <defs>
        <clipPath id="e49b5b52a6">
            <path d="M 0.269531 0 L 27.75 0 L 27.75 19.527344 L 0.269531 19.527344 Z M 0.269531 0 "
                clip-rule="nonzero" />
        </clipPath>
    </defs>
    <g clip-path="url(#e49b5b52a6)">
        <path fill="#000000"
            d="M 3.210938 0.00390625 C 1.585938 0.00390625 0.269531 1.3125 0.269531 2.929688 C 0.304688 7.371094 0.269531 12.070312 0.269531 16.59375 C 0.269531 18.152344 1.488281 19.414062 3.027344 19.507812 L 24.929688 19.523438 C 26.5 19.460938 27.75 18.175781 27.75 16.59375 L 27.75 2.429688 C 27.511719 1.046875 26.304688 0.00390625 24.851562 0.00390625 C 17.640625 0.0078125 10.425781 0.00390625 3.210938 0.00390625 Z M 3.167969 1.542969 L 24.945312 1.542969 L 14.40625 12.019531 C 14.214844 12.210938 13.910156 12.210938 13.71875 12.019531 Z M 26.277344 2.289062 L 26.277344 16.488281 C 26.277344 17.335938 25.972656 17.8125 25.359375 17.984375 L 17.933594 10.585938 Z M 1.910156 2.351562 L 10.113281 10.511719 L 2.613281 17.96875 C 2.101562 17.796875 1.921875 17.382812 1.910156 16.824219 Z M 11.15625 11.53125 L 13.71875 14.09375 C 13.910156 14.285156 14.214844 14.285156 14.40625 14.09375 L 16.890625 11.625 L 23.363281 18.058594 L 4.59375 18.058594 Z M 11.15625 11.53125 "
            fill-opacity="1" fill-rule="nonzero" />
    </g>
</svg>