<svg xmlns="http://www.w3.org/2000/svg" xmlns:xlink="http://www.w3.org/1999/xlink" width="68" zoomAndPan="magnify" viewBox="0 0 50.879997 63.749997" height="85" preserveAspectRatio="xMidYMid meet" version="1.0"><defs><clipPath id="a62a84885d"><path d="M 0.0390625 0 L 50.09375 0 L 50.09375 62.753906 L 0.0390625 62.753906 Z M 0.0390625 0 " clip-rule="nonzero"/></clipPath></defs><g clip-path="url(#a62a84885d)"><path fill="#000000" d="M 38.734375 9.628906 C 38.777344 9.78125 38.785156 9.9375 38.765625 10.089844 C 38.746094 10.246094 38.699219 10.394531 38.621094 10.53125 C 38.542969 10.667969 38.441406 10.785156 38.320312 10.878906 C 38.195312 10.976562 38.058594 11.046875 37.90625 11.089844 C 34.9375 11.546875 32.226562 12.640625 29.769531 14.371094 C 29.636719 14.449219 29.488281 14.5 29.332031 14.519531 C 29.179688 14.539062 29.023438 14.53125 28.871094 14.492188 C 28.722656 14.449219 28.582031 14.382812 28.457031 14.289062 C 28.332031 14.195312 28.230469 14.082031 28.148438 13.945312 C 28.074219 13.808594 28.027344 13.664062 28.007812 13.507812 C 27.988281 13.351562 27.996094 13.199219 28.039062 13.046875 C 28.078125 12.898438 28.144531 12.757812 28.234375 12.632812 C 28.328125 12.507812 28.441406 12.402344 28.574219 12.320312 C 31.207031 10.480469 34.109375 9.308594 37.28125 8.800781 C 37.429688 8.765625 37.585938 8.757812 37.738281 8.777344 C 37.894531 8.800781 38.039062 8.847656 38.171875 8.925781 C 38.308594 9.003906 38.425781 9.101562 38.523438 9.222656 C 38.617188 9.34375 38.691406 9.480469 38.734375 9.628906 Z M 37.277344 15.351562 C 34.105469 15.859375 31.203125 17.035156 28.570312 18.875 C 28.4375 18.957031 28.324219 19.058594 28.230469 19.183594 C 28.140625 19.3125 28.074219 19.449219 28.035156 19.601562 C 27.992188 19.75 27.984375 19.90625 28.003906 20.058594 C 28.023438 20.214844 28.070312 20.359375 28.144531 20.496094 C 28.226562 20.632812 28.328125 20.746094 28.453125 20.839844 C 28.578125 20.9375 28.71875 21.003906 28.867188 21.042969 C 29.019531 21.082031 29.175781 21.09375 29.328125 21.070312 C 29.484375 21.050781 29.632812 21 29.765625 20.921875 C 32.222656 19.195312 34.9375 18.101562 37.90625 17.640625 C 38.058594 17.597656 38.195312 17.53125 38.320312 17.433594 C 38.441406 17.335938 38.542969 17.21875 38.621094 17.082031 C 38.699219 16.945312 38.746094 16.800781 38.765625 16.644531 C 38.785156 16.488281 38.777344 16.335938 38.734375 16.183594 C 38.691406 16.03125 38.617188 15.898438 38.523438 15.773438 C 38.425781 15.652344 38.308594 15.550781 38.171875 15.476562 C 38.035156 15.398438 37.890625 15.347656 37.734375 15.328125 C 37.582031 15.308594 37.429688 15.316406 37.277344 15.351562 Z M 37.277344 21.90625 C 34.105469 22.410156 31.203125 23.585938 28.570312 25.425781 C 28.4375 25.507812 28.324219 25.609375 28.230469 25.738281 C 28.140625 25.863281 28.074219 26 28.035156 26.152344 C 27.992188 26.304688 27.984375 26.457031 28.003906 26.613281 C 28.023438 26.765625 28.070312 26.914062 28.144531 27.050781 C 28.226562 27.183594 28.328125 27.300781 28.453125 27.394531 C 28.578125 27.488281 28.71875 27.554688 28.867188 27.59375 C 29.019531 27.632812 29.175781 27.644531 29.328125 27.625 C 29.484375 27.601562 29.632812 27.554688 29.765625 27.476562 C 32.222656 25.746094 34.9375 24.652344 37.90625 24.195312 C 38.058594 24.152344 38.195312 24.082031 38.316406 23.984375 C 38.441406 23.886719 38.542969 23.769531 38.621094 23.632812 C 38.695312 23.496094 38.746094 23.351562 38.765625 23.195312 C 38.785156 23.039062 38.777344 22.886719 38.734375 22.734375 C 38.691406 22.585938 38.617188 22.449219 38.523438 22.328125 C 38.425781 22.203125 38.308594 22.105469 38.171875 22.027344 C 38.035156 21.949219 37.890625 21.902344 37.734375 21.878906 C 37.582031 21.859375 37.429688 21.867188 37.277344 21.90625 Z M 10.921875 9.628906 C 10.882812 9.78125 10.871094 9.9375 10.890625 10.089844 C 10.910156 10.246094 10.960938 10.394531 11.035156 10.53125 C 11.113281 10.667969 11.214844 10.785156 11.339844 10.878906 C 11.460938 10.976562 11.597656 11.046875 11.75 11.089844 C 14.71875 11.546875 17.429688 12.640625 19.886719 14.371094 C 20.023438 14.449219 20.167969 14.5 20.324219 14.519531 C 20.480469 14.539062 20.632812 14.53125 20.785156 14.492188 C 20.9375 14.449219 21.078125 14.382812 21.203125 14.289062 C 21.328125 14.195312 21.429688 14.082031 21.511719 13.945312 C 21.585938 13.808594 21.632812 13.664062 21.652344 13.507812 C 21.671875 13.351562 21.660156 13.199219 21.621094 13.046875 C 21.582031 12.898438 21.515625 12.757812 21.421875 12.632812 C 21.328125 12.507812 21.21875 12.402344 21.085938 12.320312 C 18.453125 10.480469 15.550781 9.308594 12.378906 8.800781 C 12.230469 8.761719 12.074219 8.753906 11.921875 8.777344 C 11.765625 8.796875 11.621094 8.847656 11.484375 8.921875 C 11.347656 9 11.234375 9.101562 11.136719 9.222656 C 11.039062 9.34375 10.96875 9.480469 10.921875 9.628906 Z M 10.921875 16.183594 C 10.882812 16.335938 10.871094 16.488281 10.890625 16.644531 C 10.910156 16.800781 10.960938 16.945312 11.035156 17.082031 C 11.113281 17.21875 11.214844 17.335938 11.339844 17.433594 C 11.460938 17.53125 11.597656 17.597656 11.75 17.640625 C 14.71875 18.101562 17.429688 19.195312 19.886719 20.921875 C 20.023438 21 20.167969 21.050781 20.324219 21.070312 C 20.480469 21.09375 20.632812 21.082031 20.785156 21.042969 C 20.9375 21.003906 21.078125 20.9375 21.203125 20.839844 C 21.328125 20.746094 21.429688 20.632812 21.511719 20.496094 C 21.585938 20.359375 21.632812 20.214844 21.652344 20.058594 C 21.671875 19.90625 21.660156 19.75 21.621094 19.601562 C 21.582031 19.449219 21.515625 19.3125 21.421875 19.183594 C 21.328125 19.058594 21.21875 18.957031 21.085938 18.875 C 18.453125 17.035156 15.550781 15.859375 12.378906 15.351562 C 12.230469 15.316406 12.074219 15.308594 11.921875 15.328125 C 11.765625 15.347656 11.621094 15.398438 11.484375 15.476562 C 11.347656 15.550781 11.234375 15.652344 11.136719 15.773438 C 11.039062 15.898438 10.964844 16.03125 10.921875 16.183594 Z M 10.921875 22.734375 C 10.882812 22.886719 10.871094 23.039062 10.890625 23.195312 C 10.910156 23.351562 10.960938 23.496094 11.035156 23.632812 C 11.113281 23.769531 11.214844 23.886719 11.339844 23.984375 C 11.460938 24.082031 11.597656 24.152344 11.75 24.195312 C 14.71875 24.652344 17.429688 25.746094 19.886719 27.476562 C 20.023438 27.554688 20.167969 27.601562 20.324219 27.625 C 20.480469 27.644531 20.632812 27.632812 20.785156 27.59375 C 20.9375 27.554688 21.078125 27.488281 21.203125 27.394531 C 21.328125 27.300781 21.429688 27.183594 21.511719 27.050781 C 21.585938 26.914062 21.632812 26.765625 21.652344 26.609375 C 21.671875 26.457031 21.660156 26.304688 21.621094 26.152344 C 21.582031 26 21.515625 25.863281 21.421875 25.738281 C 21.328125 25.609375 21.21875 25.507812 21.085938 25.425781 C 18.453125 23.585938 15.550781 22.410156 12.378906 21.90625 C 12.230469 21.867188 12.074219 21.859375 11.921875 21.878906 C 11.765625 21.902344 11.621094 21.949219 11.484375 22.027344 C 11.347656 22.105469 11.234375 22.203125 11.136719 22.328125 C 11.039062 22.449219 10.964844 22.585938 10.921875 22.734375 Z M 44.054688 56.496094 C 43.898438 56.953125 43.703125 57.394531 43.472656 57.820312 C 43.242188 58.246094 42.972656 58.648438 42.671875 59.03125 C 42.371094 59.410156 42.042969 59.761719 41.679688 60.082031 C 41.320312 60.40625 40.933594 60.695312 40.523438 60.953125 C 40.113281 61.207031 39.679688 61.425781 39.234375 61.609375 C 38.785156 61.792969 38.324219 61.933594 37.851562 62.039062 C 37.378906 62.140625 36.898438 62.203125 36.414062 62.222656 C 35.929688 62.246094 35.449219 62.222656 34.96875 62.160156 C 32.859375 61.878906 31.015625 61.019531 29.445312 59.582031 C 28.394531 58.71875 27.398438 57.773438 26.4375 56.855469 L 26.351562 56.777344 C 25.992188 56.433594 25.628906 56.089844 25.265625 55.75 C 25.191406 55.679688 25.121094 55.605469 25.058594 55.527344 L 24.539062 56.042969 C 23.882812 56.699219 23.261719 57.320312 22.605469 57.933594 C 21.023438 59.589844 19.167969 60.835938 17.039062 61.675781 C 16.054688 62.03125 15.039062 62.210938 13.996094 62.222656 C 12.089844 62.203125 10.398438 61.597656 8.917969 60.402344 C 8.34375 59.980469 7.832031 59.492188 7.382812 58.9375 C 6.933594 58.382812 6.566406 57.78125 6.273438 57.132812 C 5.980469 56.484375 5.777344 55.808594 5.660156 55.105469 C 5.542969 54.402344 5.515625 53.695312 5.582031 52.984375 C 5.617188 52.21875 5.757812 51.46875 6.003906 50.742188 C 6.25 50.015625 6.597656 49.339844 7.039062 48.710938 C 7.480469 48.082031 8 47.527344 8.597656 47.050781 C 9.199219 46.570312 9.855469 46.183594 10.5625 45.894531 C 11.738281 45.367188 12.96875 45.085938 14.253906 45.058594 L 14.296875 45.058594 C 16.316406 45.121094 18.132812 45.753906 19.753906 46.964844 C 21.417969 48.171875 22.957031 49.523438 24.367188 51.019531 L 24.835938 51.484375 C 24.890625 51.539062 24.945312 51.601562 25.003906 51.671875 L 25.816406 50.898438 C 26.625 50.125 27.460938 49.328125 28.308594 48.574219 C 29.941406 46.984375 31.859375 45.890625 34.058594 45.289062 C 34.804688 45.113281 35.5625 45.042969 36.332031 45.070312 C 37.097656 45.101562 37.847656 45.230469 38.582031 45.464844 C 39.3125 45.695312 40 46.019531 40.648438 46.4375 C 41.292969 46.855469 41.871094 47.351562 42.382812 47.921875 C 42.890625 48.496094 43.320312 49.128906 43.660156 49.816406 C 44.003906 50.503906 44.246094 51.226562 44.394531 51.980469 C 44.542969 52.734375 44.585938 53.492188 44.53125 54.261719 C 44.472656 55.027344 44.316406 55.769531 44.058594 56.496094 Z M 23.050781 53.625 C 23.046875 53.59375 23.042969 53.5625 23.035156 53.535156 L 23.011719 53.511719 C 21.421875 51.789062 19.664062 50.257812 17.742188 48.921875 C 15.179688 47.273438 12.546875 47.339844 10.320312 49.121094 C 9.570312 49.710938 9.007812 50.445312 8.632812 51.320312 C 8.257812 52.199219 8.117188 53.113281 8.210938 54.0625 C 8.242188 54.429688 8.308594 54.785156 8.40625 55.136719 C 8.503906 55.492188 8.632812 55.832031 8.792969 56.160156 C 8.953125 56.488281 9.144531 56.796875 9.363281 57.089844 C 9.582031 57.382812 9.828125 57.652344 10.097656 57.898438 C 10.367188 58.144531 10.660156 58.363281 10.96875 58.554688 C 11.28125 58.746094 11.605469 58.910156 11.945312 59.039062 C 12.289062 59.171875 12.636719 59.269531 12.996094 59.335938 C 13.355469 59.398438 13.71875 59.429688 14.085938 59.429688 C 15.277344 59.445312 16.382812 59.140625 17.394531 58.507812 C 19.4375 57.183594 21.265625 55.613281 22.882812 53.796875 Z M 41.832031 53.742188 C 41.808594 53.5625 41.796875 53.371094 41.78125 53.140625 C 41.777344 52.75 41.722656 52.367188 41.617188 51.992188 C 41.34375 51.144531 40.910156 50.390625 40.3125 49.726562 C 39.714844 49.066406 39.007812 48.554688 38.191406 48.195312 C 37.425781 47.875 36.628906 47.730469 35.796875 47.757812 C 34.96875 47.785156 34.179688 47.984375 33.4375 48.355469 C 31.152344 49.441406 29.335938 51.257812 27.578125 53.011719 L 26.972656 53.613281 C 26.992188 53.628906 27.007812 53.644531 27.023438 53.65625 C 27.457031 54.058594 27.871094 54.460938 28.273438 54.851562 C 29.183594 55.730469 30.121094 56.640625 31.109375 57.421875 C 32.519531 58.703125 34.179688 59.382812 36.082031 59.464844 L 36.109375 59.464844 C 36.898438 59.4375 37.652344 59.261719 38.371094 58.933594 C 39.089844 58.609375 39.71875 58.15625 40.253906 57.578125 C 40.773438 57.074219 41.167969 56.492188 41.441406 55.824219 C 41.714844 55.15625 41.84375 54.460938 41.828125 53.742188 Z M 50.09375 8.1875 L 50.09375 39.261719 C 50.101562 39.648438 49.953125 39.957031 49.644531 40.183594 C 49.289062 40.433594 48.902344 40.496094 48.488281 40.375 C 39.882812 40.03125 32.460938 41.882812 26.445312 45.882812 C 26.316406 45.96875 26.1875 46.054688 26.058594 46.144531 C 25.761719 46.347656 25.433594 46.453125 25.070312 46.453125 C 24.710938 46.453125 24.378906 46.351562 24.082031 46.148438 C 23.953125 46.058594 23.820312 45.96875 23.6875 45.882812 C 17.648438 41.910156 10.21875 40.058594 1.621094 40.378906 C 1.210938 40.496094 0.835938 40.429688 0.488281 40.183594 C 0.179688 39.957031 0.0273438 39.648438 0.0390625 39.261719 L 0.0390625 8.1875 C 0.0273438 7.792969 0.183594 7.480469 0.507812 7.253906 C 0.867188 7.011719 1.253906 6.957031 1.667969 7.085938 C 3.207031 6.984375 4.746094 7.035156 6.277344 7.230469 L 6.277344 1.726562 C 6.277344 1.574219 6.304688 1.425781 6.363281 1.285156 C 6.417969 1.144531 6.5 1.019531 6.609375 0.910156 C 6.714844 0.804688 6.839844 0.71875 6.980469 0.660156 C 7.117188 0.597656 7.265625 0.570312 7.417969 0.566406 C 8.996094 0.4375 10.570312 0.460938 12.144531 0.636719 C 13.714844 0.808594 15.257812 1.132812 16.769531 1.601562 C 18.28125 2.070312 19.734375 2.679688 21.132812 3.425781 C 22.527344 4.175781 23.839844 5.050781 25.066406 6.046875 C 26.292969 5.050781 27.605469 4.179688 28.996094 3.429688 C 30.390625 2.683594 31.84375 2.074219 33.351562 1.605469 C 34.863281 1.136719 36.402344 0.8125 37.972656 0.636719 C 39.546875 0.460938 41.117188 0.4375 42.695312 0.5625 C 42.847656 0.5625 42.996094 0.59375 43.136719 0.652344 C 43.28125 0.714844 43.40625 0.796875 43.511719 0.90625 C 43.621094 1.015625 43.707031 1.140625 43.765625 1.285156 C 43.824219 1.425781 43.855469 1.574219 43.855469 1.726562 L 43.855469 7.226562 C 45.386719 7.03125 46.921875 6.984375 48.460938 7.085938 C 48.875 6.957031 49.261719 7.011719 49.621094 7.25 C 49.945312 7.480469 50.105469 7.792969 50.09375 8.1875 Z M 26.300781 36.199219 C 28.5 34.628906 30.890625 33.449219 33.476562 32.660156 C 36.0625 31.871094 38.703125 31.511719 41.40625 31.585938 L 41.40625 2.941406 C 38.652344 2.863281 35.972656 3.277344 33.371094 4.183594 C 30.769531 5.085938 28.414062 6.425781 26.300781 8.195312 Z M 8.722656 31.585938 C 8.980469 31.578125 9.238281 31.574219 9.496094 31.574219 C 12.066406 31.585938 14.574219 31.988281 17.019531 32.777344 C 19.46875 33.566406 21.738281 34.707031 23.832031 36.199219 L 23.832031 8.195312 C 21.71875 6.425781 19.359375 5.085938 16.757812 4.183594 C 14.15625 3.277344 11.480469 2.863281 8.726562 2.941406 Z M 47.648438 9.496094 C 46.375 9.460938 45.109375 9.53125 43.851562 9.707031 L 43.847656 32.871094 C 43.882812 33.234375 43.773438 33.546875 43.519531 33.808594 C 43.273438 34.050781 42.980469 34.148438 42.640625 34.101562 C 41.136719 33.972656 39.636719 33.992188 38.136719 34.164062 C 36.636719 34.335938 35.171875 34.660156 33.738281 35.128906 C 32.304688 35.597656 30.929688 36.210938 29.621094 36.957031 C 28.3125 37.707031 27.089844 38.582031 25.957031 39.578125 C 25.695312 39.789062 25.398438 39.894531 25.066406 39.894531 C 24.730469 39.894531 24.433594 39.789062 24.171875 39.578125 C 23.039062 38.582031 21.816406 37.707031 20.507812 36.960938 C 19.195312 36.210938 17.824219 35.601562 16.390625 35.128906 C 14.957031 34.660156 13.492188 34.339844 11.992188 34.164062 C 10.492188 33.992188 8.992188 33.972656 7.488281 34.101562 C 7.148438 34.148438 6.855469 34.050781 6.613281 33.8125 C 6.359375 33.546875 6.253906 33.230469 6.285156 32.867188 C 6.28125 32.847656 6.28125 32.824219 6.28125 32.800781 L 6.28125 9.710938 C 5.023438 9.53125 3.757812 9.460938 2.488281 9.496094 L 2.488281 37.886719 C 3.050781 37.867188 3.617188 37.855469 4.171875 37.855469 C 7.855469 37.820312 11.472656 38.296875 15.023438 39.28125 C 18.574219 40.261719 21.921875 41.714844 25.066406 43.640625 C 28.460938 41.578125 32.082031 40.058594 35.925781 39.078125 C 39.773438 38.097656 43.679688 37.703125 47.648438 37.890625 Z M 47.648438 9.496094 " fill-opacity="1" fill-rule="nonzero"/></g></svg>