<svg xmlns="http://www.w3.org/2000/svg" xmlns:xlink="http://www.w3.org/1999/xlink" width="61" zoomAndPan="magnify" viewBox="0 0 45.75 66" height="88" preserveAspectRatio="xMidYMid meet" version="1.0"><defs><clipPath id="858c3d4eb8"><path d="M 0 0.179688 L 44.753906 0.179688 L 44.753906 65 L 0 65 Z M 0 0.179688 " clip-rule="nonzero"/></clipPath></defs><g clip-path="url(#858c3d4eb8)"><path fill="#000000" d="M 21.027344 5.960938 C 21.019531 4.582031 21.027344 3.207031 21.035156 1.824219 C 21.023438 1.636719 21.054688 1.457031 21.117188 1.277344 C 21.183594 1.101562 21.277344 0.945312 21.40625 0.808594 C 21.535156 0.671875 21.6875 0.566406 21.859375 0.492188 C 22.03125 0.417969 22.210938 0.378906 22.398438 0.378906 C 22.585938 0.378906 22.765625 0.414062 22.9375 0.488281 C 23.109375 0.5625 23.261719 0.667969 23.390625 0.800781 C 23.519531 0.9375 23.617188 1.09375 23.683594 1.269531 C 23.75 1.445312 23.777344 1.628906 23.769531 1.816406 C 23.777344 2.300781 23.769531 2.78125 23.769531 3.265625 L 23.769531 3.582031 L 23.777344 4.523438 C 23.777344 5.003906 23.777344 5.488281 23.769531 5.972656 C 23.78125 6.398438 23.636719 6.769531 23.339844 7.078125 C 23.078125 7.328125 22.765625 7.445312 22.402344 7.4375 L 22.371094 7.4375 C 22.179688 7.4375 22 7.398438 21.824219 7.324219 C 21.652344 7.246094 21.5 7.140625 21.371094 7 C 21.246094 6.859375 21.152344 6.699219 21.089844 6.515625 C 21.03125 6.335938 21.007812 6.152344 21.027344 5.960938 Z M 5.269531 34.480469 L 5.121094 34.5 C 4.984375 34.507812 4.859375 34.542969 4.738281 34.609375 L 4.0625 35 C 2.941406 35.640625 1.824219 36.28125 0.722656 36.945312 C 0.585938 37.042969 0.46875 37.15625 0.378906 37.296875 C 0.285156 37.433594 0.222656 37.585938 0.1875 37.746094 C 0.152344 37.910156 0.148438 38.074219 0.175781 38.238281 C 0.203125 38.398438 0.261719 38.554688 0.347656 38.695312 C 0.460938 38.914062 0.625 39.089844 0.832031 39.21875 C 1.042969 39.347656 1.269531 39.414062 1.515625 39.417969 C 1.71875 39.421875 1.910156 39.375 2.089844 39.277344 C 3.355469 38.578125 4.65625 37.828125 6.074219 36.972656 C 6.332031 36.8125 6.503906 36.585938 6.597656 36.296875 C 6.691406 36.007812 6.679688 35.722656 6.5625 35.441406 C 6.480469 35.152344 6.320312 34.917969 6.078125 34.742188 C 5.839844 34.5625 5.570312 34.476562 5.269531 34.480469 Z M 0.273438 14.285156 C 0.363281 14.558594 0.527344 14.777344 0.761719 14.945312 C 1.996094 15.710938 3.28125 16.460938 4.699219 17.234375 C 4.882812 17.339844 5.082031 17.394531 5.296875 17.390625 C 5.417969 17.390625 5.535156 17.375 5.652344 17.339844 C 6.023438 17.222656 6.300781 16.992188 6.480469 16.640625 C 6.566406 16.492188 6.617188 16.335938 6.640625 16.164062 C 6.664062 15.996094 6.652344 15.828125 6.613281 15.660156 C 6.570312 15.496094 6.5 15.34375 6.398438 15.207031 C 6.300781 15.066406 6.175781 14.953125 6.035156 14.859375 C 4.875 14.171875 3.511719 13.363281 2.136719 12.613281 C 1.726562 12.378906 1.3125 12.382812 0.902344 12.621094 C 0.671875 12.765625 0.488281 12.957031 0.359375 13.199219 C 0.226562 13.4375 0.164062 13.695312 0.164062 13.96875 L 0.164062 14.085938 L 0.222656 14.195312 C 0.246094 14.222656 0.261719 14.253906 0.273438 14.285156 Z M 44.722656 13.863281 C 44.675781 13.300781 44.40625 12.890625 43.910156 12.628906 C 43.425781 12.394531 42.953125 12.414062 42.492188 12.6875 C 41.28125 13.371094 40.074219 14.078125 38.871094 14.792969 C 38.710938 14.882812 38.574219 15 38.457031 15.140625 C 38.34375 15.285156 38.261719 15.445312 38.210938 15.621094 C 38.160156 15.800781 38.144531 15.980469 38.167969 16.160156 C 38.1875 16.34375 38.242188 16.515625 38.332031 16.675781 C 38.449219 16.894531 38.613281 17.066406 38.824219 17.191406 C 39.035156 17.320312 39.261719 17.382812 39.507812 17.382812 C 39.765625 17.378906 40.003906 17.3125 40.222656 17.183594 C 41.421875 16.507812 42.699219 15.777344 43.933594 15.019531 C 44.167969 14.855469 44.351562 14.644531 44.488281 14.394531 C 44.539062 14.3125 44.589844 14.238281 44.640625 14.160156 L 44.746094 14.027344 Z M 43.933594 36.832031 C 42.734375 36.132812 41.527344 35.433594 40.320312 34.742188 C 39.949219 34.507812 39.554688 34.441406 39.128906 34.550781 C 38.769531 34.648438 38.507812 34.863281 38.332031 35.191406 C 38.242188 35.359375 38.1875 35.542969 38.171875 35.734375 C 38.15625 35.925781 38.175781 36.113281 38.234375 36.296875 C 38.296875 36.476562 38.386719 36.640625 38.515625 36.789062 C 38.640625 36.933594 38.789062 37.046875 38.960938 37.128906 C 40.113281 37.804688 41.273438 38.480469 42.441406 39.152344 C 42.597656 39.234375 42.757812 39.300781 42.921875 39.351562 L 43.113281 39.417969 L 43.207031 39.417969 C 43.523438 39.429688 43.8125 39.339844 44.070312 39.148438 C 44.324219 38.957031 44.492188 38.707031 44.574219 38.394531 C 44.667969 38.089844 44.652344 37.792969 44.53125 37.5 C 44.414062 37.203125 44.214844 36.980469 43.933594 36.832031 Z M 29.855469 56.613281 L 29.855469 61.574219 C 29.851562 62.027344 29.765625 62.464844 29.59375 62.882812 C 29.417969 63.304688 29.171875 63.671875 28.855469 63.992188 C 28.535156 64.3125 28.167969 64.5625 27.75 64.734375 C 27.332031 64.910156 26.898438 64.996094 26.445312 64.996094 L 18.464844 64.996094 C 18.015625 64.996094 17.578125 64.910156 17.164062 64.738281 C 16.746094 64.5625 16.375 64.316406 16.058594 63.996094 C 15.738281 63.675781 15.492188 63.304688 15.320312 62.886719 C 15.144531 62.464844 15.058594 62.03125 15.058594 61.574219 L 15.058594 56.613281 C 15.058594 56.160156 15.144531 55.722656 15.320312 55.304688 C 15.492188 54.886719 15.738281 54.515625 16.058594 54.195312 C 16.375 53.875 16.746094 53.628906 17.164062 53.453125 C 17.578125 53.28125 18.015625 53.191406 18.464844 53.191406 L 26.445312 53.191406 C 26.898438 53.195312 27.332031 53.28125 27.75 53.453125 C 28.167969 53.628906 28.535156 53.875 28.855469 54.195312 C 29.171875 54.515625 29.417969 54.886719 29.59375 55.304688 C 29.765625 55.726562 29.851562 56.160156 29.855469 56.613281 Z M 27.53125 56.613281 C 27.535156 56.46875 27.507812 56.328125 27.453125 56.195312 C 27.398438 56.0625 27.316406 55.941406 27.214844 55.839844 C 27.113281 55.738281 26.996094 55.65625 26.863281 55.601562 C 26.730469 55.546875 26.59375 55.515625 26.449219 55.515625 L 18.464844 55.515625 C 18.320312 55.515625 18.179688 55.542969 18.046875 55.597656 C 17.914062 55.65625 17.792969 55.734375 17.691406 55.835938 C 17.589844 55.941406 17.511719 56.058594 17.453125 56.195312 C 17.398438 56.328125 17.371094 56.46875 17.371094 56.613281 L 17.371094 61.574219 C 17.371094 61.722656 17.398438 61.863281 17.453125 61.996094 C 17.511719 62.132812 17.589844 62.25 17.691406 62.351562 C 17.792969 62.457031 17.914062 62.535156 18.046875 62.589844 C 18.179688 62.648438 18.320312 62.675781 18.464844 62.675781 L 26.445312 62.675781 C 26.589844 62.671875 26.730469 62.644531 26.863281 62.589844 C 26.996094 62.53125 27.113281 62.453125 27.214844 62.351562 C 27.316406 62.246094 27.394531 62.128906 27.449219 61.996094 C 27.503906 61.859375 27.53125 61.71875 27.53125 61.574219 Z M 38.234375 27.996094 C 38.042969 29.828125 37.550781 31.570312 36.746094 33.226562 C 35.945312 34.882812 34.886719 36.347656 33.566406 37.628906 C 31.726562 39.515625 30.59375 41.761719 30.167969 44.371094 C 29.824219 46.273438 29.589844 48.191406 29.464844 50.121094 C 29.339844 51.519531 28.660156 52.269531 27.242188 52.269531 L 17.539062 52.269531 C 17.246094 52.300781 16.960938 52.269531 16.679688 52.175781 C 16.402344 52.078125 16.15625 51.925781 15.945312 51.722656 C 15.734375 51.515625 15.578125 51.273438 15.476562 50.996094 C 15.371094 50.71875 15.332031 50.433594 15.359375 50.136719 C 15.347656 47.152344 14.808594 44.265625 13.742188 41.480469 C 13.125 40 12.257812 38.679688 11.148438 37.527344 C 6.703125 32.835938 5.296875 27.296875 7.308594 21.171875 C 9.339844 15.035156 13.757812 11.375 20.132812 10.375 C 20.730469 10.285156 21.335938 10.234375 21.941406 10.214844 C 22.550781 10.195312 23.15625 10.214844 23.757812 10.265625 C 24.363281 10.316406 24.964844 10.402344 25.558594 10.523438 C 26.152344 10.640625 26.738281 10.796875 27.316406 10.984375 C 27.894531 11.171875 28.460938 11.390625 29.011719 11.644531 C 29.5625 11.894531 30.101562 12.179688 30.621094 12.492188 C 31.140625 12.804688 31.640625 13.148438 32.121094 13.519531 C 32.601562 13.890625 33.0625 14.289062 33.496094 14.714844 C 33.933594 15.136719 34.34375 15.585938 34.726562 16.058594 C 35.113281 16.527344 35.46875 17.019531 35.796875 17.53125 C 36.125 18.046875 36.425781 18.574219 36.695312 19.121094 C 36.960938 19.667969 37.199219 20.226562 37.402344 20.800781 C 37.609375 21.375 37.777344 21.960938 37.917969 22.554688 C 38.054688 23.148438 38.160156 23.746094 38.230469 24.351562 C 38.300781 24.957031 38.335938 25.5625 38.335938 26.171875 C 38.335938 26.785156 38.300781 27.390625 38.234375 27.996094 Z M 21.316406 12.855469 C 15.804688 13.363281 11.859375 16.320312 9.929688 21.523438 C 7.988281 26.765625 9.117188 31.542969 12.929688 35.65625 C 13.335938 36.097656 13.757812 36.53125 14.132812 37.003906 C 16.15625 39.8125 17.324219 42.945312 17.644531 46.394531 C 17.792969 47.46875 17.859375 48.550781 17.96875 49.617188 L 26.863281 49.640625 C 26.886719 49.351562 26.886719 49.082031 26.925781 48.808594 C 27.160156 47.121094 27.300781 45.414062 27.65625 43.746094 C 27.960938 42.148438 28.496094 40.632812 29.265625 39.199219 C 30.035156 37.765625 31 36.480469 32.164062 35.347656 C 33.316406 34.199219 34.179688 32.859375 34.761719 31.335938 C 38.539062 22.078125 31.222656 11.949219 21.316406 12.855469 Z M 21.316406 12.855469 " fill-opacity="1" fill-rule="nonzero"/></g></svg>