<svg xmlns="http://www.w3.org/2000/svg" xmlns:xlink="http://www.w3.org/1999/xlink" width="79" zoomAndPan="magnify" viewBox="0 0 59.25 62.999997" height="84" preserveAspectRatio="xMidYMid meet" version="1.0"><defs><clipPath id="c22cb20d11"><path d="M 0 1 L 58.507812 1 L 58.507812 61.867188 L 0 61.867188 Z M 0 1 " clip-rule="nonzero"/></clipPath></defs><g clip-path="url(#c22cb20d11)"><path fill="#000000" d="M 58.300781 31.945312 C 58.222656 30.785156 57.773438 29.792969 56.945312 28.96875 C 56.132812 28.164062 55.15625 27.722656 54.011719 27.640625 C 53.972656 27.425781 53.917969 27.210938 53.851562 27 C 53.621094 26.292969 53.234375 25.675781 52.699219 25.15625 L 52.605469 25.066406 C 51.792969 24.304688 50.828125 23.886719 49.710938 23.820312 L 49.394531 23.804688 C 48.105469 23.800781 47.003906 24.25 46.089844 25.15625 L 35.167969 36.015625 L 15.320312 36.03125 L 15.261719 36.023438 C 14.585938 35.972656 13.929688 36.070312 13.296875 36.304688 C 12.695312 36.523438 12.160156 36.855469 11.699219 37.300781 L 0.558594 48.359375 C 0.308594 48.601562 0.191406 48.898438 0.199219 49.246094 L 0.199219 60.535156 L 0.191406 60.636719 C 0.191406 60.800781 0.226562 60.957031 0.289062 61.105469 C 0.351562 61.253906 0.441406 61.386719 0.554688 61.503906 C 0.671875 61.617188 0.804688 61.707031 0.957031 61.769531 C 1.109375 61.832031 1.265625 61.863281 1.429688 61.867188 L 11.515625 61.855469 C 11.867188 61.859375 12.167969 61.734375 12.410156 61.484375 L 14.851562 58.949219 L 37.886719 53.191406 C 38.730469 52.90625 39.507812 52.488281 40.210938 51.9375 C 40.945312 51.378906 41.632812 50.765625 42.277344 50.101562 L 56.945312 35.539062 C 57.859375 34.636719 58.3125 33.542969 58.308594 32.257812 L 58.308594 31.945312 Z M 47.839844 26.894531 C 48.269531 26.472656 48.789062 26.261719 49.394531 26.261719 L 49.511719 26.261719 C 50.074219 26.289062 50.558594 26.5 50.957031 26.894531 C 51.207031 27.140625 51.390625 27.433594 51.511719 27.765625 C 51.546875 27.875 51.566406 27.984375 51.578125 28.097656 C 51.117188 28.324219 50.703125 28.613281 50.339844 28.96875 L 40.128906 39.113281 C 39.898438 38.445312 39.53125 37.867188 39.03125 37.367188 C 38.734375 37.078125 38.40625 36.832031 38.042969 36.628906 Z M 55.84375 32.257812 C 55.839844 32.863281 55.625 33.378906 55.199219 33.804688 L 40.511719 48.390625 C 39.957031 48.964844 39.363281 49.492188 38.730469 49.976562 C 38.273438 50.34375 37.769531 50.628906 37.214844 50.832031 L 13.917969 56.65625 C 13.667969 56.714844 13.457031 56.839844 13.289062 57.03125 L 10.996094 59.40625 L 2.667969 59.40625 L 2.667969 49.746094 L 13.414062 39.0625 C 13.886719 38.609375 14.449219 38.414062 15.105469 38.472656 L 35.726562 38.464844 C 36.289062 38.464844 36.773438 38.648438 37.191406 39.019531 L 37.273438 39.105469 C 37.675781 39.492188 37.890625 39.964844 37.925781 40.515625 L 37.925781 40.648438 C 37.925781 41.253906 37.710938 41.769531 37.273438 42.195312 C 36.851562 42.621094 36.332031 42.835938 35.726562 42.835938 L 21.492188 42.835938 C 21.328125 42.832031 21.171875 42.863281 21.019531 42.925781 C 20.867188 42.988281 20.734375 43.078125 20.617188 43.195312 C 20.5 43.308594 20.410156 43.441406 20.347656 43.59375 C 20.285156 43.742188 20.253906 43.902344 20.253906 44.0625 C 20.253906 44.226562 20.285156 44.382812 20.347656 44.535156 C 20.410156 44.683594 20.5 44.820312 20.617188 44.933594 C 20.734375 45.050781 20.867188 45.136719 21.019531 45.199219 C 21.171875 45.261719 21.328125 45.292969 21.492188 45.292969 L 35.726562 45.292969 C 36.347656 45.292969 36.945312 45.175781 37.515625 44.941406 C 38.089844 44.703125 38.59375 44.367188 39.03125 43.929688 C 39.316406 43.636719 39.558594 43.3125 39.757812 42.957031 L 52.085938 30.714844 C 52.515625 30.28125 53.03125 30.070312 53.640625 30.074219 L 53.75 30.074219 C 54.316406 30.097656 54.796875 30.308594 55.199219 30.707031 C 55.59375 31.105469 55.808594 31.585938 55.84375 32.144531 Z M 26.503906 26.261719 C 27.328125 26.265625 28.144531 26.191406 28.953125 26.035156 C 29.761719 25.882812 30.546875 25.652344 31.308594 25.34375 C 32.070312 25.035156 32.792969 24.652344 33.480469 24.203125 C 34.167969 23.753906 34.800781 23.242188 35.386719 22.664062 C 35.972656 22.089844 36.496094 21.464844 36.957031 20.789062 C 37.417969 20.109375 37.804688 19.394531 38.125 18.640625 C 38.441406 17.886719 38.683594 17.109375 38.847656 16.308594 C 39.011719 15.507812 39.097656 14.699219 39.101562 13.882812 C 39.105469 13.066406 39.027344 12.253906 38.871094 11.453125 C 38.714844 10.648438 38.480469 9.871094 38.167969 9.113281 C 37.855469 8.359375 37.472656 7.640625 37.019531 6.957031 C 36.5625 6.277344 36.046875 5.644531 35.464844 5.066406 C 34.886719 4.484375 34.253906 3.96875 33.574219 3.511719 C 32.890625 3.054688 32.167969 2.667969 31.410156 2.351562 C 30.652344 2.039062 29.867188 1.800781 29.0625 1.636719 C 28.253906 1.476562 27.441406 1.394531 26.617188 1.390625 C 25.792969 1.386719 24.980469 1.464844 24.171875 1.625 C 23.363281 1.78125 22.578125 2.015625 21.820312 2.324219 C 21.058594 2.636719 20.335938 3.019531 19.648438 3.46875 C 18.964844 3.921875 18.328125 4.4375 17.746094 5.015625 C 17.164062 5.589844 16.644531 6.21875 16.183594 6.898438 C 15.726562 7.578125 15.339844 8.292969 15.023438 9.046875 C 14.707031 9.800781 14.46875 10.578125 14.304688 11.382812 C 14.144531 12.183594 14.0625 12.992188 14.0625 13.808594 C 14.0625 14.621094 14.144531 15.429688 14.304688 16.226562 C 14.464844 17.023438 14.699219 17.796875 15.011719 18.550781 C 15.324219 19.300781 15.707031 20.015625 16.160156 20.695312 C 16.613281 21.371094 17.128906 22 17.707031 22.574219 C 18.285156 23.152344 18.910156 23.667969 19.589844 24.125 C 20.269531 24.578125 20.984375 24.964844 21.738281 25.28125 C 22.496094 25.597656 23.273438 25.839844 24.074219 26.003906 C 24.875 26.167969 25.6875 26.253906 26.503906 26.261719 Z M 26.597656 3.867188 C 27.257812 3.867188 27.910156 3.933594 28.554688 4.0625 C 29.203125 4.191406 29.828125 4.378906 30.4375 4.632812 C 31.046875 4.882812 31.625 5.191406 32.171875 5.558594 C 32.71875 5.921875 33.222656 6.335938 33.6875 6.800781 C 34.152344 7.265625 34.566406 7.769531 34.933594 8.3125 C 35.296875 8.859375 35.605469 9.433594 35.855469 10.039062 C 36.105469 10.644531 36.292969 11.269531 36.421875 11.910156 C 36.546875 12.554688 36.609375 13.203125 36.609375 13.855469 C 36.605469 14.511719 36.539062 15.160156 36.410156 15.800781 C 36.277344 16.441406 36.085938 17.066406 35.832031 17.667969 C 35.578125 18.273438 35.265625 18.847656 34.898438 19.390625 C 34.53125 19.933594 34.113281 20.433594 33.644531 20.894531 C 33.175781 21.355469 32.667969 21.769531 32.117188 22.128906 C 31.570312 22.492188 30.988281 22.796875 30.378906 23.042969 C 29.769531 23.292969 29.140625 23.476562 28.496094 23.601562 C 27.847656 23.726562 27.195312 23.789062 26.535156 23.785156 C 25.878906 23.785156 25.226562 23.714844 24.578125 23.585938 C 23.933594 23.457031 23.304688 23.261719 22.699219 23.007812 C 22.089844 22.757812 21.515625 22.445312 20.96875 22.078125 C 20.421875 21.714844 19.917969 21.296875 19.453125 20.832031 C 18.988281 20.367188 18.578125 19.863281 18.214844 19.316406 C 17.851562 18.769531 17.542969 18.191406 17.296875 17.585938 C 17.046875 16.980469 16.859375 16.355469 16.734375 15.714844 C 16.609375 15.070312 16.550781 14.421875 16.554688 13.769531 C 16.558594 13.117188 16.625 12.472656 16.757812 11.832031 C 16.890625 11.195312 17.085938 10.574219 17.339844 9.972656 C 17.59375 9.371094 17.90625 8.800781 18.273438 8.261719 C 18.640625 7.722656 19.054688 7.222656 19.523438 6.761719 C 19.988281 6.304688 20.496094 5.894531 21.039062 5.53125 C 21.585938 5.171875 22.164062 4.867188 22.769531 4.617188 C 23.378906 4.371094 24.003906 4.183594 24.648438 4.054688 C 25.292969 3.929688 25.941406 3.867188 26.597656 3.867188 Z M 20.925781 15.378906 C 20.785156 15.257812 20.675781 15.109375 20.597656 14.941406 C 20.515625 14.773438 20.472656 14.59375 20.46875 14.40625 C 20.460938 14.222656 20.496094 14.039062 20.5625 13.867188 C 20.632812 13.695312 20.734375 13.542969 20.867188 13.410156 C 21.003906 13.277344 21.15625 13.179688 21.332031 13.113281 C 21.507812 13.042969 21.6875 13.011719 21.875 13.019531 C 22.0625 13.027344 22.242188 13.070312 22.414062 13.152344 C 22.582031 13.234375 22.726562 13.34375 22.851562 13.484375 C 23.4375 14.058594 24.003906 14.640625 24.617188 15.253906 C 25.878906 14 27.082031 12.804688 28.285156 11.601562 L 30.261719 9.640625 C 30.382812 9.492188 30.527344 9.375 30.699219 9.285156 C 30.871094 9.199219 31.054688 9.152344 31.246094 9.140625 C 31.441406 9.132812 31.625 9.160156 31.804688 9.230469 C 31.988281 9.296875 32.144531 9.398438 32.28125 9.535156 C 32.417969 9.667969 32.519531 9.828125 32.589844 10.003906 C 32.660156 10.183594 32.691406 10.367188 32.679688 10.558594 C 32.671875 10.75 32.625 10.933594 32.539062 11.101562 C 32.449219 11.273438 32.332031 11.421875 32.183594 11.542969 C 30.011719 13.71875 27.828125 15.878906 25.644531 18.046875 C 25.515625 18.191406 25.363281 18.304688 25.1875 18.386719 C 25.007812 18.46875 24.824219 18.507812 24.628906 18.507812 C 24.433594 18.507812 24.246094 18.46875 24.070312 18.386719 C 23.890625 18.304688 23.738281 18.191406 23.613281 18.046875 C 22.707031 17.164062 21.820312 16.277344 20.925781 15.378906 Z M 20.925781 15.378906 " fill-opacity="1" fill-rule="nonzero"/></g></svg>