<svg xmlns="http://www.w3.org/2000/svg" xmlns:xlink="http://www.w3.org/1999/xlink" width="83" zoomAndPan="magnify" viewBox="0 0 62.25 62.249997" height="83" preserveAspectRatio="xMidYMid meet" version="1.0"><defs><clipPath id="ffdfde5131"><path d="M 0 0 L 61.507812 0 L 61.507812 61.507812 L 0 61.507812 Z M 0 0 " clip-rule="nonzero"/></clipPath></defs><g clip-path="url(#ffdfde5131)"><path fill="#000000" d="M 30.765625 0 C 29.757812 0 28.75 0.0507812 27.75 0.148438 C 26.746094 0.246094 25.75 0.394531 24.761719 0.589844 C 23.773438 0.789062 22.796875 1.03125 21.832031 1.324219 C 20.867188 1.617188 19.921875 1.957031 18.992188 2.34375 C 18.058594 2.726562 17.148438 3.15625 16.261719 3.632812 C 15.371094 4.109375 14.507812 4.625 13.671875 5.183594 C 12.835938 5.746094 12.027344 6.34375 11.246094 6.984375 C 10.46875 7.621094 9.722656 8.296875 9.011719 9.011719 C 8.296875 9.722656 7.621094 10.46875 6.980469 11.246094 C 6.34375 12.027344 5.742188 12.835938 5.183594 13.671875 C 4.625 14.511719 4.105469 15.375 3.632812 16.261719 C 3.15625 17.152344 2.726562 18.0625 2.339844 18.992188 C 1.957031 19.921875 1.617188 20.871094 1.324219 21.835938 C 1.03125 22.796875 0.785156 23.773438 0.589844 24.761719 C 0.394531 25.75 0.246094 26.746094 0.148438 27.75 C 0.046875 28.75 0 29.757812 0 30.765625 C 0 31.773438 0.046875 32.777344 0.148438 33.78125 C 0.246094 34.78125 0.394531 35.777344 0.589844 36.765625 C 0.785156 37.753906 1.03125 38.730469 1.324219 39.695312 C 1.617188 40.660156 1.957031 41.605469 2.339844 42.539062 C 2.726562 43.46875 3.15625 44.378906 3.632812 45.265625 C 4.105469 46.15625 4.625 47.019531 5.183594 47.855469 C 5.742188 48.695312 6.34375 49.503906 6.980469 50.28125 C 7.621094 51.058594 8.296875 51.804688 9.011719 52.519531 C 9.722656 53.230469 10.46875 53.90625 11.246094 54.546875 C 12.027344 55.183594 12.835938 55.785156 13.671875 56.34375 C 14.507812 56.90625 15.371094 57.421875 16.261719 57.898438 C 17.148438 58.371094 18.058594 58.800781 18.992188 59.1875 C 19.921875 59.574219 20.867188 59.914062 21.832031 60.203125 C 22.796875 60.496094 23.773438 60.742188 24.761719 60.9375 C 25.75 61.136719 26.746094 61.28125 27.75 61.382812 C 28.75 61.480469 29.757812 61.53125 30.765625 61.53125 C 31.769531 61.53125 32.777344 61.480469 33.78125 61.382812 C 34.78125 61.28125 35.777344 61.136719 36.765625 60.9375 C 37.753906 60.742188 38.730469 60.496094 39.695312 60.203125 C 40.660156 59.914062 41.605469 59.574219 42.535156 59.1875 C 43.46875 58.800781 44.378906 58.371094 45.265625 57.898438 C 46.15625 57.421875 47.019531 56.90625 47.855469 56.34375 C 48.695312 55.785156 49.5 55.183594 50.28125 54.546875 C 51.058594 53.90625 51.804688 53.230469 52.519531 52.519531 C 53.230469 51.804688 53.90625 51.058594 54.546875 50.28125 C 55.183594 49.503906 55.785156 48.695312 56.34375 47.855469 C 56.902344 47.019531 57.421875 46.15625 57.894531 45.265625 C 58.371094 44.378906 58.800781 43.46875 59.1875 42.539062 C 59.574219 41.605469 59.910156 40.660156 60.203125 39.695312 C 60.496094 38.730469 60.742188 37.753906 60.9375 36.765625 C 61.132812 35.777344 61.28125 34.78125 61.378906 33.78125 C 61.480469 32.777344 61.527344 31.773438 61.527344 30.765625 C 61.527344 29.757812 61.476562 28.753906 61.378906 27.75 C 61.277344 26.746094 61.128906 25.753906 60.929688 24.765625 C 60.734375 23.777344 60.488281 22.800781 60.195312 21.839844 C 59.902344 20.875 59.5625 19.925781 59.175781 18.996094 C 58.792969 18.066406 58.359375 17.15625 57.886719 16.269531 C 57.410156 15.382812 56.894531 14.519531 56.332031 13.679688 C 55.773438 12.84375 55.171875 12.035156 54.535156 11.257812 C 53.894531 10.480469 53.21875 9.734375 52.507812 9.019531 C 51.796875 8.308594 51.050781 7.632812 50.269531 6.992188 C 49.492188 6.355469 48.683594 5.753906 47.847656 5.195312 C 47.011719 4.636719 46.148438 4.117188 45.257812 3.644531 C 44.371094 3.167969 43.460938 2.738281 42.53125 2.351562 C 41.601562 1.964844 40.652344 1.625 39.691406 1.332031 C 38.726562 1.039062 37.75 0.792969 36.761719 0.597656 C 35.777344 0.398438 34.78125 0.25 33.777344 0.152344 C 32.777344 0.0507812 31.769531 0 30.765625 0 Z M 30.765625 58.972656 C 29.839844 58.972656 28.917969 58.925781 28 58.835938 C 27.078125 58.746094 26.167969 58.609375 25.261719 58.429688 C 24.355469 58.25 23.460938 58.027344 22.574219 57.757812 C 21.691406 57.488281 20.824219 57.179688 19.96875 56.824219 C 19.113281 56.472656 18.28125 56.078125 17.464844 55.640625 C 16.652344 55.207031 15.859375 54.730469 15.09375 54.21875 C 14.324219 53.707031 13.582031 53.15625 12.867188 52.570312 C 12.152344 51.984375 11.46875 51.363281 10.816406 50.710938 C 10.164062 50.058594 9.542969 49.375 8.957031 48.660156 C 8.371094 47.945312 7.824219 47.203125 7.308594 46.4375 C 6.796875 45.667969 6.320312 44.875 5.886719 44.0625 C 5.449219 43.246094 5.054688 42.414062 4.703125 41.558594 C 4.347656 40.707031 4.039062 39.835938 3.769531 38.953125 C 3.5 38.070312 3.277344 37.171875 3.097656 36.265625 C 2.917969 35.359375 2.78125 34.449219 2.691406 33.527344 C 2.601562 32.609375 2.554688 31.6875 2.554688 30.765625 C 2.554688 29.839844 2.601562 28.917969 2.691406 28 C 2.78125 27.078125 2.917969 26.167969 3.097656 25.261719 C 3.277344 24.355469 3.5 23.460938 3.769531 22.574219 C 4.039062 21.691406 4.347656 20.820312 4.703125 19.96875 C 5.054688 19.113281 5.449219 18.28125 5.886719 17.464844 C 6.320312 16.652344 6.796875 15.859375 7.308594 15.089844 C 7.824219 14.324219 8.371094 13.582031 8.957031 12.867188 C 9.542969 12.152344 10.164062 11.46875 10.816406 10.816406 C 11.472656 10.164062 12.15625 9.542969 12.867188 8.957031 C 13.582031 8.371094 14.324219 7.820312 15.09375 7.308594 C 15.859375 6.796875 16.652344 6.320312 17.464844 5.886719 C 18.28125 5.449219 19.117188 5.054688 19.96875 4.703125 C 20.824219 4.347656 21.691406 4.039062 22.574219 3.769531 C 23.460938 3.5 24.355469 3.277344 25.261719 3.097656 C 26.167969 2.917969 27.078125 2.78125 28 2.691406 C 28.917969 2.601562 29.839844 2.554688 30.765625 2.554688 C 31.6875 2.554688 32.609375 2.601562 33.53125 2.691406 C 34.449219 2.78125 35.363281 2.917969 36.269531 3.097656 C 37.175781 3.277344 38.070312 3.5 38.953125 3.769531 C 39.835938 4.039062 40.707031 4.347656 41.558594 4.703125 C 42.414062 5.054688 43.246094 5.449219 44.0625 5.886719 C 44.875 6.320312 45.667969 6.796875 46.4375 7.308594 C 47.203125 7.824219 47.945312 8.371094 48.660156 8.957031 C 49.375 9.542969 50.058594 10.164062 50.710938 10.816406 C 51.363281 11.472656 51.984375 12.15625 52.570312 12.867188 C 53.15625 13.582031 53.707031 14.324219 54.21875 15.09375 C 54.730469 15.859375 55.207031 16.652344 55.640625 17.46875 C 56.078125 18.28125 56.472656 19.117188 56.824219 19.96875 C 57.179688 20.824219 57.488281 21.691406 57.757812 22.574219 C 58.027344 23.460938 58.25 24.355469 58.429688 25.261719 C 58.609375 26.167969 58.746094 27.082031 58.835938 28 C 58.925781 28.917969 58.972656 29.839844 58.972656 30.765625 C 58.972656 31.6875 58.925781 32.609375 58.835938 33.527344 C 58.742188 34.449219 58.605469 35.359375 58.425781 36.265625 C 58.246094 37.171875 58.019531 38.066406 57.75 38.949219 C 57.480469 39.832031 57.171875 40.703125 56.816406 41.554688 C 56.464844 42.40625 56.066406 43.242188 55.632812 44.054688 C 55.195312 44.871094 54.722656 45.660156 54.210938 46.429688 C 53.695312 47.195312 53.144531 47.9375 52.558594 48.652344 C 51.972656 49.367188 51.355469 50.046875 50.703125 50.703125 C 50.046875 51.355469 49.363281 51.972656 48.652344 52.558594 C 47.9375 53.144531 47.195312 53.695312 46.429688 54.210938 C 45.660156 54.722656 44.871094 55.199219 44.054688 55.632812 C 43.242188 56.070312 42.40625 56.464844 41.554688 56.816406 C 40.699219 57.171875 39.832031 57.484375 38.949219 57.75 C 38.066406 58.019531 37.171875 58.246094 36.265625 58.425781 C 35.359375 58.605469 34.445312 58.742188 33.527344 58.835938 C 32.609375 58.925781 31.6875 58.972656 30.765625 58.972656 Z M 17.503906 28.714844 C 17.511719 28.40625 17.546875 28.097656 17.609375 27.792969 C 17.675781 27.488281 17.769531 27.195312 17.890625 26.90625 C 18.011719 26.621094 18.15625 26.347656 18.332031 26.089844 C 18.503906 25.832031 18.699219 25.589844 18.917969 25.371094 C 19.136719 25.148438 19.375 24.949219 19.628906 24.773438 C 19.886719 24.597656 20.15625 24.449219 20.441406 24.324219 C 20.726562 24.199219 21.023438 24.101562 21.324219 24.035156 C 21.628906 23.964844 21.9375 23.925781 22.246094 23.917969 C 22.558594 23.929688 22.863281 23.96875 23.167969 24.035156 C 23.472656 24.105469 23.765625 24.203125 24.050781 24.324219 C 24.335938 24.449219 24.605469 24.601562 24.863281 24.777344 C 25.117188 24.953125 25.355469 25.152344 25.574219 25.375 C 25.792969 25.59375 25.988281 25.835938 26.160156 26.09375 C 26.335938 26.351562 26.480469 26.625 26.601562 26.910156 C 26.722656 27.199219 26.816406 27.492188 26.878906 27.796875 C 26.945312 28.101562 26.980469 28.410156 26.988281 28.71875 C 26.988281 28.890625 26.953125 29.050781 26.890625 29.210938 C 26.824219 29.367188 26.730469 29.503906 26.613281 29.625 C 26.492188 29.742188 26.355469 29.835938 26.199219 29.902344 C 26.039062 29.964844 25.878906 29.996094 25.707031 29.996094 C 25.539062 29.996094 25.375 29.964844 25.21875 29.902344 C 25.0625 29.835938 24.925781 29.742188 24.804688 29.625 C 24.683594 29.503906 24.59375 29.367188 24.527344 29.210938 C 24.464844 29.050781 24.429688 28.890625 24.429688 28.71875 C 24.445312 28.589844 24.441406 28.464844 24.414062 28.335938 L 24.429688 28.488281 C 24.421875 28.425781 24.410156 28.363281 24.394531 28.300781 C 24.371094 28.207031 24.347656 28.117188 24.316406 28.027344 C 24.308594 28.003906 24.304688 27.976562 24.300781 27.953125 C 24.226562 27.765625 24.128906 27.59375 24 27.433594 L 23.960938 27.375 L 23.9375 27.347656 C 23.871094 27.277344 23.8125 27.203125 23.742188 27.136719 C 23.671875 27.066406 23.601562 27.007812 23.53125 26.941406 L 23.511719 26.921875 L 23.484375 26.90625 C 23.316406 26.800781 23.148438 26.707031 22.972656 26.613281 C 22.933594 26.601562 22.886719 26.585938 22.851562 26.570312 C 22.761719 26.542969 22.667969 26.519531 22.574219 26.496094 L 22.507812 26.484375 C 22.445312 26.484375 22.265625 26.46875 22.253906 26.46875 C 22.222656 26.46875 22.167969 26.464844 22.109375 26.460938 L 22.023438 26.476562 C 21.976562 26.484375 21.933594 26.496094 21.886719 26.507812 C 21.792969 26.53125 21.699219 26.554688 21.609375 26.585938 C 21.574219 26.597656 21.546875 26.605469 21.527344 26.609375 L 21.515625 26.617188 C 21.347656 26.707031 21.183594 26.800781 21.019531 26.902344 L 20.988281 26.921875 L 20.972656 26.9375 C 20.886719 27.015625 20.804688 27.085938 20.726562 27.167969 C 20.652344 27.246094 20.601562 27.308594 20.535156 27.378906 C 20.515625 27.40625 20.492188 27.4375 20.472656 27.460938 C 20.359375 27.617188 20.265625 27.785156 20.191406 27.964844 C 20.257812 27.804688 20.265625 27.792969 20.214844 27.921875 L 20.183594 28.015625 C 20.152344 28.105469 20.125 28.195312 20.105469 28.289062 C 20.09375 28.328125 20.085938 28.375 20.078125 28.414062 C 20.074219 28.511719 20.066406 28.609375 20.066406 28.707031 C 20.066406 28.878906 20.035156 29.039062 19.96875 29.195312 C 19.90625 29.355469 19.8125 29.492188 19.695312 29.613281 C 19.574219 29.730469 19.4375 29.824219 19.277344 29.890625 C 19.121094 29.953125 18.960938 29.984375 18.789062 29.984375 C 18.621094 29.984375 18.457031 29.953125 18.300781 29.890625 C 18.144531 29.824219 18.007812 29.730469 17.886719 29.613281 C 17.765625 29.492188 17.675781 29.355469 17.609375 29.195312 C 17.542969 29.039062 17.511719 28.878906 17.511719 28.707031 Z M 34.542969 28.714844 C 34.542969 28.40625 34.574219 28.097656 34.632812 27.789062 C 34.695312 27.484375 34.785156 27.1875 34.90625 26.902344 C 35.023438 26.613281 35.171875 26.339844 35.34375 26.082031 C 35.515625 25.824219 35.710938 25.585938 35.933594 25.363281 C 36.152344 25.144531 36.394531 24.949219 36.652344 24.773438 C 36.910156 24.601562 37.183594 24.457031 37.472656 24.335938 C 37.757812 24.21875 38.054688 24.128906 38.359375 24.066406 C 38.667969 24.007812 38.976562 23.976562 39.285156 23.976562 C 39.597656 23.976562 39.90625 24.007812 40.210938 24.070312 C 40.515625 24.128906 40.8125 24.21875 41.101562 24.339844 C 41.386719 24.457031 41.660156 24.605469 41.917969 24.777344 C 42.179688 24.949219 42.417969 25.148438 42.636719 25.367188 C 42.859375 25.585938 43.054688 25.828125 43.226562 26.085938 C 43.398438 26.34375 43.546875 26.617188 43.664062 26.90625 C 43.785156 27.191406 43.875 27.488281 43.933594 27.796875 C 43.996094 28.101562 44.023438 28.410156 44.023438 28.71875 C 44.023438 28.890625 43.992188 29.050781 43.925781 29.210938 C 43.863281 29.367188 43.769531 29.503906 43.652344 29.625 C 43.53125 29.742188 43.390625 29.835938 43.234375 29.902344 C 43.078125 29.964844 42.917969 29.996094 42.746094 29.996094 C 42.578125 29.996094 42.414062 29.964844 42.257812 29.902344 C 42.101562 29.835938 41.964844 29.742188 41.84375 29.625 C 41.722656 29.503906 41.632812 29.367188 41.566406 29.210938 C 41.5 29.050781 41.46875 28.890625 41.46875 28.71875 C 41.484375 28.589844 41.480469 28.464844 41.453125 28.335938 L 41.46875 28.488281 C 41.460938 28.425781 41.445312 28.363281 41.433594 28.300781 C 41.410156 28.207031 41.386719 28.117188 41.355469 28.027344 C 41.347656 28.003906 41.34375 27.976562 41.339844 27.953125 C 41.265625 27.765625 41.167969 27.59375 41.039062 27.433594 L 41 27.375 L 40.976562 27.347656 C 40.910156 27.277344 40.851562 27.203125 40.78125 27.136719 C 40.710938 27.066406 40.640625 27.007812 40.570312 26.941406 L 40.550781 26.921875 L 40.523438 26.90625 C 40.351562 26.800781 40.183594 26.707031 40.011719 26.613281 C 39.972656 26.601562 39.929688 26.585938 39.890625 26.570312 C 39.800781 26.542969 39.707031 26.519531 39.613281 26.496094 L 39.546875 26.484375 C 39.484375 26.484375 39.304688 26.46875 39.292969 26.46875 C 39.261719 26.46875 39.207031 26.464844 39.148438 26.460938 L 39.0625 26.476562 C 39.015625 26.484375 38.96875 26.496094 38.921875 26.507812 C 38.832031 26.53125 38.738281 26.554688 38.648438 26.585938 C 38.609375 26.597656 38.585938 26.605469 38.5625 26.609375 L 38.554688 26.617188 C 38.382812 26.707031 38.222656 26.800781 38.058594 26.902344 L 38.027344 26.921875 L 38.011719 26.9375 C 37.925781 27.015625 37.839844 27.085938 37.765625 27.167969 C 37.699219 27.234375 37.640625 27.308594 37.574219 27.378906 C 37.554688 27.40625 37.53125 27.4375 37.511719 27.460938 C 37.398438 27.617188 37.304688 27.785156 37.230469 27.964844 C 37.296875 27.804688 37.304688 27.792969 37.253906 27.921875 L 37.222656 28.015625 C 37.191406 28.105469 37.164062 28.195312 37.144531 28.289062 C 37.132812 28.328125 37.125 28.375 37.117188 28.414062 C 37.113281 28.511719 37.105469 28.609375 37.105469 28.707031 C 37.105469 28.878906 37.074219 29.039062 37.007812 29.195312 C 36.945312 29.355469 36.851562 29.492188 36.730469 29.613281 C 36.613281 29.730469 36.472656 29.824219 36.316406 29.890625 C 36.160156 29.953125 35.996094 29.984375 35.828125 29.984375 C 35.660156 29.984375 35.496094 29.953125 35.339844 29.890625 C 35.183594 29.824219 35.042969 29.730469 34.925781 29.613281 C 34.804688 29.492188 34.710938 29.355469 34.648438 29.195312 C 34.582031 29.039062 34.550781 28.878906 34.550781 28.707031 Z M 45.316406 35.925781 C 44.386719 36.890625 43.378906 37.753906 42.285156 38.523438 C 41.191406 39.292969 40.035156 39.949219 38.8125 40.496094 C 37.59375 41.039062 36.332031 41.464844 35.03125 41.769531 C 33.730469 42.070312 32.410156 42.246094 31.074219 42.296875 C 29.710938 42.328125 28.355469 42.226562 27.011719 41.988281 C 25.667969 41.753906 24.359375 41.386719 23.085938 40.894531 C 21.816406 40.402344 20.601562 39.789062 19.449219 39.058594 C 18.300781 38.328125 17.230469 37.488281 16.242188 36.546875 C 15.050781 35.414062 16.855469 33.609375 18.050781 34.738281 C 18.472656 35.148438 18.917969 35.539062 19.382812 35.902344 C 19.847656 36.269531 20.328125 36.613281 20.824219 36.929688 C 21.320312 37.25 21.832031 37.542969 22.359375 37.808594 C 22.886719 38.078125 23.425781 38.320312 23.976562 38.53125 C 24.527344 38.746094 25.085938 38.933594 25.65625 39.09375 C 26.222656 39.253906 26.800781 39.382812 27.382812 39.484375 C 27.964844 39.585938 28.546875 39.660156 29.136719 39.703125 C 29.726562 39.75 30.316406 39.761719 30.90625 39.75 C 31.496094 39.734375 32.085938 39.691406 32.671875 39.617188 C 33.257812 39.546875 33.839844 39.445312 34.417969 39.3125 C 34.992188 39.183594 35.5625 39.027344 36.121094 38.839844 C 36.683594 38.652344 37.230469 38.441406 37.769531 38.199219 C 38.3125 37.957031 38.835938 37.691406 39.351562 37.398438 C 39.863281 37.105469 40.359375 36.789062 40.84375 36.445312 C 41.324219 36.101562 41.785156 35.738281 42.230469 35.351562 C 42.675781 34.960938 43.101562 34.554688 43.507812 34.121094 C 44.652344 32.933594 46.457031 34.742188 45.316406 35.925781 Z M 45.316406 35.925781 " fill-opacity="1" fill-rule="nonzero"/></g></svg>