<svg xmlns="http://www.w3.org/2000/svg" xmlns:xlink="http://www.w3.org/1999/xlink" width="441" zoomAndPan="magnify" viewBox="0 0 330.75 403.499983" height="538" preserveAspectRatio="xMidYMid meet" version="1.0"><defs><clipPath id="617379eabb"><path d="M 0.078125 0 L 330.421875 0 L 330.421875 402.25 L 0.078125 402.25 Z M 0.078125 0 " clip-rule="nonzero"/></clipPath></defs><g clip-path="url(#617379eabb)"><path fill="#010101" d="M 101.875 120.417969 C 113.203125 127.636719 107.246094 149.203125 94.488281 148.699219 C 89.957031 148.363281 86.265625 144.417969 85.34375 138.796875 L 84.671875 134.769531 C 72.082031 156.585938 84.671875 186.207031 111.105469 186.628906 C 129.148438 186.710938 144.171875 170.933594 144.339844 151.886719 C 145.011719 129.480469 123.023438 112.28125 101.875 120.417969 Z M 116.644531 164.558594 C 110.519531 162.796875 113.960938 153.648438 119.414062 153.902344 C 127.472656 154.570312 123.191406 166.152344 116.644531 164.558594 Z M 238.917969 109.761719 C 235.390625 109.847656 232.371094 110.601562 229.265625 111.609375 C 239.589844 118.070312 234.386719 137.707031 222.804688 137.285156 C 218.691406 136.949219 215.503906 133.511719 214.664062 128.390625 L 213.992188 124.363281 C 202.410156 144.335938 213.65625 171.773438 237.910156 172.109375 C 254.359375 172.195312 268.039062 157.761719 268.203125 140.308594 C 268.625 124.113281 255.28125 109.089844 238.917969 109.761719 Z M 242.945312 151.804688 C 237.488281 150.292969 240.59375 141.984375 245.460938 142.238281 C 252.597656 142.90625 248.734375 153.230469 242.945312 151.804688 Z M 309.914062 84.421875 C 303.117188 72.253906 294.21875 61.429688 283.5625 52.113281 C 288.261719 48.757812 291.953125 44.058594 294.050781 38.769531 C 294.21875 38.351562 294.136719 37.847656 293.800781 37.429688 C 293.464844 37.09375 292.960938 36.925781 292.542969 37.09375 C 289.4375 38.015625 286.164062 38.855469 282.976562 39.695312 C 291.199219 28.871094 294.808594 14.6875 292.625 1.261719 C 292.542969 0.757812 292.121094 0.339844 291.617188 0.253906 C 291.113281 0.171875 290.527344 0.421875 290.277344 0.925781 C 284.484375 11.917969 275.085938 20.730469 263.671875 25.847656 C 267.199219 19.640625 269.042969 12.507812 269.128906 5.375 C 269.210938 4.03125 267.28125 3.613281 266.777344 4.785156 C 265.015625 8.480469 260.734375 15.359375 252.597656 20.308594 C 247.226562 23.5 241.855469 24.839844 237.574219 25.34375 C 178.328125 3.359375 109.09375 16.199219 60.921875 57.066406 C 56.558594 58.15625 50.851562 58.742188 44.304688 57.316406 C 34.992188 55.300781 28.78125 50.101562 25.925781 47.164062 C 25.003906 46.238281 23.410156 47.246094 23.828125 48.421875 C 26.179688 55.132812 30.292969 61.261719 35.578125 66.128906 C 23.074219 64.867188 11.410156 59.5 2.261719 50.855469 C 1.84375 50.519531 1.253906 50.433594 0.835938 50.6875 C 0.332031 50.9375 0.078125 51.441406 0.164062 52.03125 C 2.429688 65.457031 10.316406 77.707031 21.648438 85.425781 C 18.457031 85.679688 15.019531 85.847656 11.746094 86.015625 C 11.242188 86.015625 10.820312 86.351562 10.652344 86.769531 C 10.484375 87.191406 10.570312 87.691406 10.820312 88.113281 C 14.933594 92.980469 20.640625 96.421875 26.765625 97.847656 C 2.261719 140.308594 11.828125 198.375 44.808594 232.277344 C 40.949219 237.3125 23.15625 262.820312 30.710938 296.636719 C 30.878906 297.8125 32.558594 297.980469 33.058594 296.890625 C 33.730469 295.546875 35.496094 292.359375 37.171875 290.007812 C 37.675781 297.894531 40.445312 318.371094 55.71875 329.363281 C 56.136719 329.699219 56.726562 329.699219 57.144531 329.363281 C 57.566406 329.027344 57.816406 328.523438 57.648438 328.019531 C 57.648438 328.019531 56.976562 325.671875 56.976562 323.070312 C 59.578125 328.105469 66.125 336.664062 79.300781 339.601562 C 89.539062 349.753906 103.050781 358.0625 120.335938 363.769531 C 112.699219 367.207031 105.652344 375.851562 110.769531 389.109375 C 110.9375 389.613281 111.441406 389.949219 111.945312 389.949219 C 112.617188 389.949219 113.203125 389.363281 113.203125 388.605469 C 113.203125 388.523438 112.953125 382.816406 117.734375 379.039062 C 117.566406 382.144531 118.15625 385.503906 119.414062 389.109375 C 119.667969 389.699219 120.253906 390.035156 120.839844 389.867188 C 121.429688 389.78125 121.847656 389.195312 121.847656 388.605469 C 121.847656 388.355469 121.597656 382.816406 126.378906 379.039062 C 126.210938 382.144531 126.714844 385.503906 128.058594 389.109375 C 128.308594 389.699219 128.898438 390.035156 129.484375 389.867188 C 130.070312 389.78125 130.492188 389.195312 130.492188 388.605469 C 130.492188 388.269531 130.238281 380.886719 137.792969 377.277344 C 146.773438 373.335938 157.429688 378.871094 157.347656 388.605469 C 157.261719 390.035156 159.359375 390.453125 159.78125 389.109375 C 161.960938 383.234375 162.046875 377.949219 160.199219 373.503906 C 159.695312 372.410156 159.109375 371.40625 158.4375 370.398438 C 165.152344 370.984375 172.789062 371.488281 181.261719 371.992188 C 180.003906 373.25 178.828125 374.84375 178.496094 376.019531 C 176.730469 379.710938 176.226562 384.160156 177.066406 389.363281 C 177.152344 389.949219 177.65625 390.453125 178.328125 390.453125 C 178.914062 390.453125 179.5 390.035156 179.585938 389.363281 C 180.675781 381.640625 191.167969 375.515625 200.902344 381.976562 C 207.613281 386.929688 205.9375 394.144531 205.9375 394.480469 C 205.769531 395.066406 206.105469 395.738281 206.691406 395.90625 C 207.277344 396.160156 207.949219 395.90625 208.203125 395.402344 C 210.214844 392.132812 211.390625 388.859375 211.808594 385.835938 C 215.753906 390.535156 214.496094 395.90625 214.410156 396.160156 C 214.246094 396.746094 214.578125 397.417969 215.167969 397.585938 C 215.753906 397.835938 216.425781 397.585938 216.679688 397.082031 C 218.691406 393.726562 219.867188 390.535156 220.285156 387.515625 C 224.230469 392.132812 223.054688 397.585938 222.972656 397.835938 C 222.804688 398.59375 223.390625 399.429688 224.230469 399.347656 C 224.648438 399.347656 225.070312 399.097656 225.320312 398.761719 C 228.847656 392.800781 229.9375 387.179688 228.34375 382.144531 C 227.167969 378.285156 224.734375 375.433594 222.46875 373.503906 C 233.796875 373.167969 239.167969 371.90625 243.867188 370.398438 C 256.625 366.285156 268.371094 359.320312 278.945312 349.671875 C 280.207031 350.34375 281.378906 350.929688 282.554688 351.515625 C 291.703125 356.214844 301.4375 360.160156 311.507812 362.761719 C 312.09375 362.761719 312.597656 362.339844 312.683594 361.839844 C 315.703125 350.257812 315.367188 337.839844 311.507812 326.511719 C 313.859375 329.867188 315.621094 333.726562 316.542969 337.753906 C 316.792969 339.015625 318.808594 339.015625 318.976562 337.671875 C 323.507812 311.324219 319.816406 284.890625 308.152344 261.140625 C 311.089844 263.492188 313.355469 266.597656 314.78125 270.289062 C 315.03125 270.875 315.621094 271.210938 316.207031 271.042969 C 316.792969 270.960938 317.214844 270.371094 317.214844 269.785156 C 317.046875 258.039062 314.695312 246.625 310.25 235.96875 C 307.226562 228.5 302.023438 222.878906 295.5625 218.933594 C 347.257812 175.71875 320.320312 101.371094 309.914062 84.421875 Z M 32.726562 98.601562 C 34.320312 98.601562 34.402344 96.167969 32.808594 96.085938 C 26.011719 95.832031 19.464844 92.980469 14.597656 88.28125 C 18.289062 88.113281 22.066406 87.777344 25.589844 87.523438 C 26.765625 87.441406 27.1875 85.761719 26.09375 85.175781 C 14.933594 78.714844 6.625 67.722656 3.4375 55.21875 C 13.507812 63.609375 26.261719 68.476562 39.355469 68.894531 C 39.941406 68.980469 40.363281 68.5625 40.613281 68.058594 C 40.78125 67.554688 40.613281 66.964844 40.195312 66.628906 C 35.242188 62.9375 31.128906 58.070312 28.359375 52.617188 C 39.269531 61.679688 57.3125 62.519531 67.46875 57.566406 C 68.140625 57.316406 68.390625 56.5625 68.140625 55.890625 C 67.886719 55.386719 67.382812 55.050781 66.796875 55.132812 C 112.699219 19.640625 175.054688 7.21875 230.441406 25.429688 C 229.9375 25.597656 229.519531 26.015625 229.519531 26.519531 C 229.433594 27.191406 230.019531 27.777344 230.691406 27.863281 C 241.6875 29.289062 258.804688 22.742188 266.191406 10.660156 C 265.269531 16.785156 263 22.574219 259.476562 27.695312 C 259.140625 28.113281 259.226562 28.703125 259.5625 29.207031 C 259.898438 29.625 260.484375 29.792969 260.988281 29.625 C 273.324219 25.007812 283.8125 16.367188 290.695312 5.207031 C 291.703125 18.042969 287.339844 31.136719 278.777344 40.871094 C 277.941406 41.707031 278.863281 43.21875 280.039062 42.882812 C 283.476562 42.042969 287.171875 41.121094 290.695312 40.113281 C 288.429688 44.476562 285.074219 48.085938 280.960938 50.6875 C 279.367188 51.695312 277.6875 52.617188 275.925781 53.289062 C 274.667969 53.707031 275.003906 55.722656 276.34375 55.722656 C 278.109375 55.132812 279.785156 54.296875 281.378906 53.371094 C 289.855469 60.671875 297.15625 68.980469 303.199219 78.210938 C 250.078125 33.316406 177.234375 53.371094 173.625 120.671875 C 168.757812 105.902344 158.6875 85.761719 138.378906 75.441406 C 106.492188 59.246094 53.203125 72.671875 19.550781 121.679688 C 21.898438 113.621094 25.171875 105.816406 29.367188 98.183594 C 30.542969 98.433594 31.632812 98.601562 32.726562 98.601562 Z M 57.648438 318.203125 C 57.480469 317.699219 57.0625 317.28125 56.558594 317.28125 C 56.054688 317.195312 55.550781 317.53125 55.300781 318.035156 C 54.375 320.300781 54.375 323.070312 54.628906 325.253906 C 39.4375 311.824219 39.605469 287.070312 39.605469 286.820312 C 38.347656 282.371094 33.5625 291.015625 32.558594 292.695312 C 27.101562 261.980469 42.796875 239.074219 46.65625 233.953125 C 48.417969 235.714844 50.265625 237.394531 52.195312 238.988281 C 54.964844 241.339844 57.816406 243.4375 60.671875 245.367188 C 50.179688 278.007812 54.125 311.574219 75.859375 335.910156 C 61.257812 330.789062 57.816406 318.707031 57.648438 318.203125 Z M 158.773438 383.070312 C 152.984375 369.054688 132.757812 371.90625 129.066406 383.070312 C 128.730469 381.054688 128.8125 379.125 129.148438 377.363281 C 129.738281 376.941406 130.074219 376.355469 129.738281 375.683594 C 129.234375 374.761719 128.226562 374.929688 127.472656 375.433594 C 123.527344 377.53125 121.429688 380.46875 120.421875 383.070312 C 120.085938 381.054688 120.167969 379.125 120.503906 377.363281 C 121.933594 376.605469 120.839844 374.425781 119.414062 375.097656 C 119.164062 375.179688 118.910156 375.347656 118.742188 375.433594 C 114.796875 377.445312 112.785156 380.46875 111.777344 383.070312 C 109.847656 373.921875 117.148438 366.789062 124.113281 365.027344 C 134.773438 368.046875 142.410156 368.804688 155.082031 370.0625 C 156.339844 371.40625 157.347656 372.832031 157.933594 374.425781 C 157.933594 374.507812 157.933594 374.507812 158.019531 374.59375 C 158.941406 377.109375 159.277344 379.878906 158.773438 383.070312 Z M 225.824219 382.902344 C 226.75 385.921875 226.582031 389.195312 225.320312 392.71875 C 224.816406 389.949219 223.390625 386.59375 219.867188 383.824219 C 219.449219 383.488281 218.945312 383.488281 218.523438 383.65625 C 218.105469 383.90625 217.851562 384.328125 217.851562 384.832031 C 217.9375 386.84375 217.601562 388.859375 216.847656 391.039062 C 216.34375 388.269531 214.914062 384.914062 211.390625 382.144531 C 210.972656 381.808594 210.46875 381.808594 210.046875 381.976562 C 209.628906 382.230469 209.375 382.648438 209.375 383.152344 C 209.460938 385.082031 209.125 387.179688 208.371094 389.363281 C 206.355469 376.4375 186.382812 371.992188 179.164062 383.738281 C 179.25 381.304688 179.753906 379.125 180.675781 377.195312 C 181.597656 375.265625 182.941406 373.671875 184.703125 372.242188 C 185.628906 372.328125 186.550781 372.328125 187.472656 372.410156 C 198.132812 373.082031 210.214844 373.671875 217.179688 373.585938 C 217.515625 373.585938 217.851562 373.585938 218.273438 373.585938 C 220.621094 375.011719 224.398438 378.117188 225.824219 382.902344 Z M 243.027344 367.964844 C 237.992188 369.558594 232.289062 370.902344 218.859375 370.984375 C 218.691406 370.902344 218.441406 370.902344 218.273438 370.984375 C 211.476562 370.984375 202.832031 370.734375 191.417969 370.0625 C 189.152344 369.894531 186.886719 369.808594 184.535156 369.640625 C 184.535156 369.640625 184.453125 369.640625 184.453125 369.640625 C 173.960938 368.972656 163.472656 368.300781 155.667969 367.628906 C 155.417969 367.628906 155.25 367.710938 154.996094 367.796875 C 143.078125 366.117188 135.359375 365.53125 124.871094 362.761719 C 124.703125 362.675781 124.617188 362.507812 124.367188 362.507812 C 122.015625 361.839844 119.75 361 117.566406 360.078125 C 61.425781 340.105469 48.835938 290.679688 62.851562 246.792969 C 68.894531 250.570312 75.1875 253.589844 81.648438 255.855469 C 81.566406 271.714844 85.59375 287.324219 93.484375 301.167969 C 94.15625 302.425781 96.253906 301.589844 95.75 300.160156 C 95.328125 298.820312 94.238281 294.035156 96.921875 289.839844 C 97.511719 289 98.183594 288.164062 98.9375 287.492188 C 100.617188 302.09375 113.121094 316.523438 123.441406 321.222656 C 123.945312 321.476562 124.535156 321.390625 124.953125 320.972656 C 125.371094 320.554688 125.371094 319.882812 125.035156 319.460938 C 123.777344 318.035156 120.925781 310.988281 123.945312 306.625 C 132.757812 320.722656 146.4375 332.050781 162.214844 337.503906 C 163.054688 337.503906 163.722656 336.496094 163.386719 335.742188 C 160.03125 328.1875 159.277344 319.714844 161.207031 311.742188 C 162.886719 311.910156 165.152344 312.496094 167.332031 313.921875 C 170.691406 316.105469 172.367188 319.125 173.039062 320.722656 C 173.207031 321.140625 173.710938 321.476562 174.128906 321.476562 C 174.632812 321.476562 175.054688 321.222656 175.304688 320.804688 C 181.347656 308.21875 182.859375 293.953125 179.417969 280.359375 C 180.171875 280.273438 181.179688 280.441406 182.1875 280.863281 C 185.207031 282.121094 186.214844 285.140625 186.382812 285.730469 C 186.71875 286.902344 188.398438 286.902344 188.734375 285.8125 C 192.003906 276.332031 192.089844 266.007812 189.152344 256.359375 C 194.523438 255.605469 199.808594 254.847656 205.179688 254.007812 C 204.929688 288.75 247.726562 331.796875 276.511719 348.414062 C 266.441406 357.476562 255.199219 364.019531 243.027344 367.964844 Z M 186.71875 256.609375 C 189.320312 264.75 189.570312 273.5625 187.304688 281.867188 C 185.796875 279.015625 180.507812 277 177.65625 278.007812 C 176.984375 278.09375 176.480469 278.847656 176.730469 279.601562 C 180.171875 292.191406 179.332031 305.449219 174.214844 317.363281 C 173.125 315.601562 171.359375 313.503906 168.757812 311.824219 C 165.65625 309.8125 162.464844 309.308594 160.453125 309.222656 C 159.863281 309.140625 159.359375 309.558594 159.191406 310.148438 C 157.011719 317.953125 157.261719 326.425781 160.117188 334.0625 C 145.679688 328.105469 133.261719 317.28125 125.289062 303.769531 C 124.871094 303.015625 123.777344 302.929688 123.273438 303.601562 C 120 307.125 119.667969 313.335938 121.261719 317.027344 C 111.945312 311.742188 102.125 297.644531 101.289062 285.226562 C 101.203125 284.300781 100.113281 283.796875 99.359375 284.300781 C 95.75 286.398438 93.230469 290.679688 92.894531 294.539062 C 87.1875 282.707031 84.25 269.785156 84.25 256.695312 C 97.257812 260.890625 111.023438 262.402344 125.035156 262.402344 C 145.511719 262.148438 166.074219 259.546875 186.71875 256.609375 Z M 307.730469 236.976562 L 308.90625 236.472656 L 307.816406 237.226562 C 311.339844 245.871094 313.523438 254.933594 314.191406 264.332031 C 313.523438 262.484375 302.949219 252.667969 303.621094 258.457031 C 308.066406 266.765625 311.507812 275.492188 313.941406 284.46875 C 318.054688 299.910156 319.144531 315.855469 317.046875 332.050781 C 315.117188 327.265625 312.09375 322.902344 308.234375 319.460938 C 307.3125 318.539062 305.632812 319.714844 306.304688 320.886719 C 312.09375 333.054688 313.523438 346.984375 310.417969 360.078125 C 301.101562 357.390625 292.039062 353.78125 283.5625 349.417969 C 282.304688 348.832031 280.960938 348.160156 279.617188 347.40625 C 279.617188 347.40625 279.617188 347.320312 279.617188 347.320312 C 279.449219 347.070312 279.113281 346.984375 278.863281 346.984375 C 242.527344 326.59375 178.914062 258.625 222.300781 225.984375 C 244.121094 209.621094 293.464844 205.089844 307.730469 236.976562 Z M 293.382812 217.757812 C 271.8125 205.925781 238.078125 210.542969 220.707031 224.050781 C 210.636719 231.773438 205.9375 241.171875 205.265625 251.410156 C 196.035156 252.835938 187.136719 254.09375 178.410156 255.183594 C 134.605469 260.890625 89.121094 266.933594 53.703125 237.144531 C 27.941406 215.492188 13.003906 178.65625 15.605469 143.328125 C 16.023438 138.125 16.78125 132.921875 17.953125 127.804688 C 69.3125 52.867188 155.332031 51.863281 173.375 128.976562 C 173.710938 130.40625 175.894531 130.070312 175.808594 128.644531 C 175.640625 119.664062 176.898438 88.867188 199.640625 70.492188 C 228.34375 47.246094 275.757812 53.960938 307.648438 85.761719 C 317.886719 102.125 344.320312 174.796875 293.382812 217.757812 Z M 64.699219 157.425781 C 64.699219 183.1875 83.832031 204.164062 107.328125 204.164062 C 130.828125 204.164062 149.960938 183.1875 149.960938 157.425781 C 147.695312 95.414062 67.046875 95.414062 64.699219 157.425781 Z M 67.214844 157.425781 C 67.214844 133.007812 85.257812 113.203125 107.414062 113.203125 C 129.570312 113.203125 147.613281 133.007812 147.613281 157.425781 C 145.347656 216.082031 69.398438 216.082031 67.214844 157.425781 Z M 199.726562 145.507812 C 199.726562 171.269531 219.027344 192.25 242.691406 192.25 C 266.441406 192.25 285.660156 171.269531 285.660156 145.507812 C 283.394531 83.496094 202.074219 83.496094 199.726562 145.507812 Z M 202.242188 145.507812 C 202.242188 121.089844 220.371094 101.285156 242.777344 101.285156 C 265.101562 101.285156 283.3125 121.089844 283.3125 145.507812 C 281.042969 204.164062 204.507812 204.164062 202.242188 145.507812 Z M 177.824219 173.871094 C 159.445312 180.164062 163.304688 203.660156 183.863281 213.394531 C 197.796875 202.65625 199.976562 185.285156 194.1875 178.570312 C 193.011719 176.136719 183.277344 171.269531 177.824219 173.871094 Z M 183.699219 210.625 C 165.234375 200.640625 162.800781 178.402344 181.851562 175.632812 C 199.976562 176.894531 197.964844 196.695312 183.699219 210.625 Z M 392.910156 428.214844 C 390.894531 428.296875 391.148438 425.277344 393.078125 425.78125 C 394.839844 425.78125 394.589844 428.214844 392.910156 428.214844 Z M 392.910156 428.214844 " fill-opacity="1" fill-rule="nonzero"/></g></svg>